<svg width="1034" height="281" viewBox="0 0 1034 281" fill="none" xmlns="http://www.w3.org/2000/svg">
<g opacity="0.2">
<path fill-rule="evenodd" clip-rule="evenodd" d="M591.702 174.617C683.397 199.71 781.088 213.199 845.89 283.315C922.217 365.901 978.438 473.475 962.211 575.507C945.459 680.837 856.294 751.475 763.05 804.184C667.82 858.015 559.223 889.238 443.822 868.54C314.117 845.277 166.726 799.941 102.791 685.764C40.5041 574.529 105.372 453.139 150.295 344.347C185.982 257.922 237.526 176.08 327.546 141.465C409.357 110.007 501.688 149.983 591.702 174.617Z" stroke="white"/>
<path fill-rule="evenodd" clip-rule="evenodd" d="M654.429 134.283C774.725 168.933 847.577 288.618 903.406 398.139C952.025 493.515 963.261 596.518 939.563 693.638C916.579 787.828 869.041 881.272 776.698 917.403C690.455 951.146 595.153 881.052 498.522 866.202C370.562 846.536 220.002 912.421 128.816 817.834C35.4791 721.016 63.1909 570.874 102.236 455.135C137.358 351.027 230.178 287.904 326.465 231.956C426.731 173.696 533.956 99.5815 654.429 134.283Z" stroke="white"/>
<path fill-rule="evenodd" clip-rule="evenodd" d="M674.338 160.415C789.622 168.767 912.861 244.32 961.012 348.805C1006.48 447.465 922.467 537.705 892.971 634.842C867.49 718.761 871.893 816.222 802.647 870.349C723.892 931.91 612.363 972.229 509.425 934.647C409.839 898.29 384.647 779.586 322.204 694.945C252.2 600.054 96.8546 520.606 127.356 416.756C158.221 311.67 333.984 358.07 435.06 310.702C524.64 268.72 570.303 152.878 674.338 160.415Z" stroke="white"/>
<path fill-rule="evenodd" clip-rule="evenodd" d="M621.596 141.117C732.363 166.163 819.624 261.307 869.714 361.383C914.612 451.085 878.638 542.806 869.88 637.168C859.174 752.524 910.361 902.052 813.722 964.672C716.512 1027.66 580.278 936.987 459.269 903.233C336.977 869.121 183.186 876.187 115.69 769.966C48.392 664.056 117.312 541.734 162.087 435.546C197.457 351.662 260.946 291.056 338.609 241.294C424.422 186.31 514.214 116.837 621.596 141.117Z" stroke="white"/>
<path fill-rule="evenodd" clip-rule="evenodd" d="M600.32 182.999C684.748 217.203 782.294 220.492 841.026 289.553C906.289 366.292 920.135 464.017 919.226 557.987C918.04 680.711 931.268 822.63 835.17 895.319C732.753 972.787 577.219 961.388 443.853 917.561C315.973 875.536 204.298 784.707 142.902 667.822C86.6522 560.733 111.147 445.032 138.113 335.493C163.997 230.35 185.134 101.571 290.89 66.6797C392.988 32.9951 494.02 139.934 600.32 182.999Z" stroke="white"/>
<path fill-rule="evenodd" clip-rule="evenodd" d="M583.907 235.347C699.355 263.98 857.723 228.91 914.357 331.815C971.607 435.839 833.532 522.416 799.509 627.097C771.721 712.591 815.51 834.706 736.27 879.736C656.865 924.859 554.729 844.408 459.264 820.448C357.27 794.85 228.021 822.032 166.823 736.817C105.349 651.217 179.418 551.373 197.21 455.553C215.82 355.324 182.535 223.136 271.624 172.404C360.953 121.535 476.396 208.682 583.907 235.347Z" stroke="white"/>
<path fill-rule="evenodd" clip-rule="evenodd" d="M596.505 203.965C679.64 231.869 743.177 290.645 800.337 356.949C871.065 438.99 957.196 521.257 957.156 622.307C957.109 738.591 907.973 863.549 800.116 907.811C695.964 950.553 577.862 865.119 464.157 824.624C363.764 788.87 253.302 771.557 186.403 689.242C113.274 599.262 71.0743 480.351 101.97 378.976C131.519 282.02 236.803 235.683 335.251 200.843C417.454 171.752 508.402 174.393 596.505 203.965Z" stroke="white"/>
<path fill-rule="evenodd" clip-rule="evenodd" d="M591.196 185.306C688.98 214.814 753.752 301.455 810.034 385.659C866.975 470.846 916.063 562.353 906.862 657.569C896.673 763.007 858.763 879.032 758.635 917.558C662.391 954.59 554.435 877.323 453.394 832.05C374.89 796.876 302.777 755.879 249.353 689.368C188.331 613.4 125.276 527.697 137.194 438.398C149.649 345.071 227.562 280.74 310.024 234.77C393.608 188.174 492.206 155.433 591.196 185.306Z" stroke="white"/>
</g>
</svg>
