<svg width="44" height="50" viewBox="0 0 44 50" fill="none" xmlns="http://www.w3.org/2000/svg">
<g clip-path="url(#clip0_398_962)">
<path d="M15.5566 0.527369C16.3184 -0.185522 17.5 -0.175756 18.2617 0.537134C20.957 3.06643 23.4863 5.79104 25.8496 8.74026C26.9238 7.33401 28.1445 5.80081 29.4629 4.55081C30.2344 3.82815 31.4258 3.82815 32.1973 4.56057C35.5762 7.78323 38.4375 12.041 40.4492 16.084C42.4316 20.0684 43.75 24.1407 43.75 27.0117C43.75 39.4727 34.0039 50 21.875 50C9.60938 50 0 39.4629 0 27.002C0 23.252 1.73828 18.6719 4.43359 14.1406C7.1582 9.54104 11.0059 4.74612 15.5566 0.527369ZM22.041 40.625C24.5117 40.625 26.6992 39.9414 28.7598 38.5742C32.8711 35.7032 33.9746 29.961 31.5039 25.4492C31.0645 24.5703 29.9414 24.5117 29.3066 25.2539L26.8457 28.1153C26.2012 28.8574 25.0391 28.8379 24.4336 28.0664C22.8223 26.0156 19.9414 22.3535 18.3008 20.2735C17.6855 19.4922 16.5137 19.4824 15.8887 20.2637C12.5879 24.4141 10.9277 27.0313 10.9277 29.9707C10.9375 36.6602 15.8789 40.625 22.041 40.625Z" fill="#CD892D"/>
</g>
<defs>
<clipPath id="clip0_398_962">
<rect width="43.75" height="50" fill="white"/>
</clipPath>
</defs>
</svg>
