<svg width="16" height="16" viewBox="0 0 16 16" fill="none" xmlns="http://www.w3.org/2000/svg">
<path d="M10.6466 9.74936L8.93383 11.4391C8.04065 10.9005 7.2109 10.2631 6.46025 9.53894C5.73726 8.78696 5.10002 7.95699 4.56027 7.06429L6.24826 5.35132C6.35049 5.2475 6.41953 5.1156 6.4466 4.97241C6.47366 4.82923 6.45753 4.68123 6.40025 4.54724L4.64027 0.444433C4.57074 0.282657 4.44541 0.151247 4.28711 0.0741467C4.12882 -0.0029531 3.9481 -0.0206107 3.77787 0.0243914L0.550699 0.878077C0.38954 0.919861 0.247332 1.01511 0.147347 1.14825C0.0473619 1.28138 -0.00448021 1.44451 0.000303768 1.61095C0.205643 5.36474 1.76625 8.91643 4.39227 11.6063C7.08239 14.2335 10.6347 15.7946 14.389 15.9996C14.5556 16.0052 14.7191 15.9538 14.8525 15.8538C14.9859 15.7539 15.0811 15.6114 15.1226 15.4499L15.9754 12.2208C16.0206 12.0507 16.0031 11.8699 15.9262 11.7116C15.8492 11.5532 15.7179 11.4279 15.5562 11.3583L11.453 9.59895C11.3189 9.54083 11.1705 9.5241 11.0268 9.5509C10.8832 9.5777 10.7508 9.64681 10.6466 9.74936Z" fill="#CD892D"/>
</svg>
