<svg width="50" height="50" viewBox="0 0 50 50" fill="none" xmlns="http://www.w3.org/2000/svg">
<path d="M22.2949 45.8105L4.64844 29.3359C4.23828 28.955 3.84766 28.5448 3.48633 28.1249H11.9824C14.1895 28.1249 16.1816 26.7968 17.0312 24.7558L18.0566 22.2948L22.8711 32.9882C23.2422 33.8183 24.0527 34.3554 24.9609 34.3652C25.8691 34.3749 26.6992 33.8769 27.1094 33.0663L31.25 24.7753L31.416 25.1073C32.3438 26.9628 34.2383 28.1347 36.3086 28.1347H46.5137C46.1523 28.5546 45.7617 28.9648 45.3516 29.3456L27.7051 45.8105C26.9727 46.4941 26.0059 46.8749 25 46.8749C23.9941 46.8749 23.0273 46.4941 22.2949 45.8105ZM49.1895 23.4374H36.2988C36.0059 23.4374 35.7324 23.2714 35.5957 23.0077L33.3301 18.4862C32.9297 17.6952 32.1191 17.1874 31.2305 17.1874C30.3418 17.1874 29.5312 17.6855 29.1309 18.4862L25.0879 26.5722L20.1074 15.4491C19.7266 14.5995 18.8672 14.0526 17.9395 14.0722C17.0117 14.0917 16.1719 14.6484 15.8105 15.5175L12.7051 22.9687C12.5879 23.2616 12.2949 23.4472 11.9824 23.4472L1.5625 23.4374C1.30859 23.4374 1.07422 23.4765 0.849609 23.5448C0.292969 21.9921 0 20.3319 0 18.6425V18.0761C0 11.2499 4.93164 5.4296 11.6602 4.30655C16.1133 3.56437 20.6445 5.01944 23.8281 8.20304L25 9.37491L26.1719 8.20304C29.3555 5.01944 33.8867 3.56437 38.3398 4.30655C45.0684 5.4296 50 11.2499 50 18.0761V18.6425C50 20.2929 49.7266 21.914 49.1895 23.4374Z" fill="#CD892D"/>
</svg>
