<svg width="719" height="910" viewBox="0 0 719 910" fill="none" xmlns="http://www.w3.org/2000/svg">
<g opacity="0.2">
<path fill-rule="evenodd" clip-rule="evenodd" d="M593.825 146.176C683.373 165.323 779.194 174.161 840.826 233.417C913.421 303.211 965.419 395.422 946.213 484.972C926.387 577.418 836.312 641.758 742.784 690.569C647.264 740.421 539.288 770.939 426.245 756.341C299.192 739.933 155.409 704.791 96.0202 607.048C38.1622 511.824 105.899 403.915 153.59 307.601C191.475 231.088 244.838 158.099 334.619 125.178C416.212 95.2598 505.918 127.379 593.825 146.176Z" stroke="white"/>
<path fill-rule="evenodd" clip-rule="evenodd" d="M656.511 110.196C773.605 136.74 841.414 238.693 892.818 332.313C937.584 413.842 945.384 503.126 919.047 588.339C893.505 670.981 843.863 753.709 752.005 787.913C666.216 819.857 574.791 761.724 480.324 751.699C355.229 738.422 205.24 800.259 118.63 720.693C29.9773 639.249 61.9243 507.782 103.924 405.91C141.703 314.275 234.878 256.571 331.234 205.007C431.572 151.312 539.245 83.6128 656.511 110.196Z" stroke="white"/>
<path fill-rule="evenodd" clip-rule="evenodd" d="M675.18 132.483C788.128 136.294 906.775 198.311 950.775 287.739C992.322 372.18 906.985 453.177 874.967 538.539C847.306 612.285 848.567 696.914 778.865 746.062C699.591 801.959 588.801 840.364 488.897 810.763C392.245 782.125 371.238 679.645 312.579 607.904C246.816 527.475 96.7636 463.033 129.981 371.802C163.594 279.486 334.737 314.576 435.483 270.352C524.771 231.159 573.255 129.044 675.18 132.483Z" stroke="white"/>
<path fill-rule="evenodd" clip-rule="evenodd" d="M623.956 117.405C731.904 135.863 814.574 215.966 860.601 301.469C901.856 378.108 863.66 458.925 852.098 541.222C837.963 641.829 883.512 770.291 786.678 827.624C689.273 885.295 558.388 810.544 440.659 784.823C321.683 758.829 170.491 769.575 107.572 679.251C44.8362 589.192 116.335 480.785 163.625 387.129C200.983 313.144 265.211 258.555 343.013 212.968C428.979 162.597 519.308 99.5118 623.956 117.405Z" stroke="white"/>
<path fill-rule="evenodd" clip-rule="evenodd" d="M601.809 154.249C683.667 181.475 779.383 181.414 834.904 239.734C896.599 304.54 907.127 389.141 903.28 470.918C898.256 577.718 906.787 700.786 810.105 766.9C707.064 837.363 554.641 832.106 425.013 797.973C300.718 765.245 193.874 689.573 137.24 589.727C85.3531 498.25 113.053 396.861 142.986 300.759C171.718 208.514 196.53 95.8487 301.512 62.3262C402.862 29.9632 498.744 119.969 601.809 154.249Z" stroke="white"/>
<path fill-rule="evenodd" clip-rule="evenodd" d="M584.093 200.054C696.692 221.524 853.49 186.238 905.93 274.143C958.94 363.003 820.471 442.529 783.728 534.698C753.719 609.974 792.925 714.99 713.606 756.575C634.12 798.247 536.24 731.258 443.14 713.258C343.673 694.027 215.751 721.571 158.267 649.207C100.524 576.516 176.485 487.357 196.992 403.389C218.443 315.559 189.88 201.457 279.061 154.612C368.484 107.64 479.236 180.06 584.093 200.054Z" stroke="white"/>
<path fill-rule="evenodd" clip-rule="evenodd" d="M597.803 170.813C679.009 192.736 739.889 242.277 794.234 298.601C861.477 368.293 943.924 437.719 940.689 526.185C936.968 627.99 884.5 738.868 776.603 780.87C672.411 821.429 558.496 750.195 447.503 718.17C349.504 689.895 240.98 678.068 177.525 608.021C108.162 531.451 70.2516 428.621 103.963 338.938C136.205 253.166 241.628 209.425 339.938 175.956C422.025 148.01 511.744 147.58 597.803 170.813Z" stroke="white"/>
<path fill-rule="evenodd" clip-rule="evenodd" d="M592.923 155.844C688.247 178.638 749.274 252.24 802.022 323.971C855.386 396.541 900.822 474.857 888.765 558.156C875.413 650.4 834.442 752.706 734.668 789.306C638.764 824.486 534.933 760.354 436.901 723.913C360.735 695.599 291.043 662.018 240.551 605.627C182.879 541.219 123.512 468.383 138.057 390.161C153.258 308.41 231.978 249.977 314.597 207.417C398.34 164.278 496.425 132.769 592.923 155.844Z" stroke="white"/>
</g>
</svg>
