<svg width="44" height="50" viewBox="0 0 44 50" fill="none" xmlns="http://www.w3.org/2000/svg">
<g clip-path="url(#clip0_398_950)">
<path d="M40.625 0C42.3535 0 43.75 1.39648 43.75 3.125C43.75 8.96484 40.791 13.623 36.9727 17.4414C34.2383 20.1758 30.8691 22.666 27.4707 25L27.2266 25.166C26.0645 25.957 24.9023 26.7383 23.7598 27.5L23.6035 27.5977C23.0176 27.9883 22.4414 28.3691 21.8652 28.7598C19.8242 30.127 17.8809 31.4648 16.0742 32.8125H27.6465C26.6895 32.0898 25.6836 31.377 24.6484 30.6543L25.332 30.1953L25.625 30C27.0996 29.0137 28.6426 27.9883 30.1855 26.9141C32.627 28.6816 34.9609 30.5566 36.9629 32.5488C40.791 36.377 43.75 41.0352 43.75 46.875C43.75 48.6035 42.3535 50 40.625 50C38.8965 50 37.5 48.6035 37.5 46.875H6.25C6.25 48.6035 4.85352 50 3.125 50C1.39648 50 0 48.6035 0 46.875C0 41.0352 2.95898 36.377 6.77734 32.5586C9.51172 29.8242 12.8809 27.334 16.2793 25C12.8809 22.666 9.51172 20.1855 6.77734 17.4414C2.95898 13.623 0 8.96484 0 3.125C0 1.39648 1.39648 0 3.125 0C4.85352 0 6.25 1.39648 6.25 3.125H37.5C37.5 1.39648 38.8965 0 40.625 0ZM33.0664 37.5H10.6836C9.69727 38.5352 8.86719 39.5801 8.19336 40.625H35.5566C34.8926 39.5801 34.0625 38.5352 33.0664 37.5ZM10.6836 12.5H33.0664C34.0527 11.4551 34.8828 10.4199 35.5566 9.375H8.19336C8.85742 10.4199 9.6875 11.4551 10.6836 12.5ZM16.0938 17.1875C17.8906 18.5352 19.8438 19.873 21.8848 21.2402C23.9258 19.873 25.8691 18.5352 27.6758 17.1875H16.1035H16.0938Z" fill="#CD892D"/>
</g>
<defs>
<clipPath id="clip0_398_950">
<rect width="43.75" height="50" fill="white"/>
</clipPath>
</defs>
</svg>
