<svg width="32" height="50" viewBox="0 0 32 50" fill="none" xmlns="http://www.w3.org/2000/svg">
<g clip-path="url(#clip0_398_938)">
<path d="M10.9376 4.6875C10.9376 3.4443 11.4315 2.25201 12.3106 1.37294C13.1896 0.49386 14.3819 0 15.6251 0C16.8683 0 18.0606 0.49386 18.9397 1.37294C19.8188 2.25201 20.3126 3.4443 20.3126 4.6875C20.3126 5.9307 19.8188 7.12299 18.9397 8.00206C18.0606 8.88114 16.8683 9.375 15.6251 9.375C14.3819 9.375 13.1896 8.88114 12.3106 8.00206C11.4315 7.12299 10.9376 5.9307 10.9376 4.6875ZM14.8439 34.375V46.875C14.8439 48.6035 13.4474 50 11.7189 50C9.99035 50 8.59387 48.6035 8.59387 46.875V25.0879L5.8009 29.7363C4.91222 31.2109 2.9884 31.6895 1.51379 30.8008C0.0391774 29.9121 -0.439338 27.9883 0.449334 26.5137L6.14269 17.041C7.84191 14.2188 10.8888 12.4902 14.1798 12.4902H17.0802C20.3712 12.4902 23.4181 14.2188 25.1173 17.041L30.8107 26.5137C31.6993 27.9883 31.2208 29.9121 29.7462 30.8008C28.2716 31.6895 26.3478 31.2109 25.4591 29.7363L22.6564 25.0879V46.875C22.6564 48.6035 21.2599 50 19.5314 50C17.8028 50 16.4064 48.6035 16.4064 46.875V34.375H14.8439Z" fill="#CD892D"/>
</g>
<defs>
<clipPath id="clip0_398_938">
<rect width="31.25" height="50" fill="white"/>
</clipPath>
</defs>
</svg>
