<svg width="16" height="23" viewBox="0 0 16 23" fill="none" xmlns="http://www.w3.org/2000/svg">
<path d="M8 0C3.57714 0 0 3.57714 0 8C0 9.98857 0.571428 11.8514 1.61143 13.5314C2.69714 15.2914 4.12571 16.8 5.22286 18.56C5.76 19.4171 6.14857 20.2171 6.56 21.1429C6.85714 21.7714 7.09714 22.8571 8 22.8571C8.90286 22.8571 9.14286 21.7714 9.42857 21.1429C9.85143 20.2171 10.2286 19.4171 10.7657 18.56C11.8629 16.8114 13.2914 15.3029 14.3771 13.5314C15.4286 11.8514 16 9.98857 16 8C16 3.57714 12.4229 0 8 0ZM8 11.1429C6.42286 11.1429 5.14286 9.86286 5.14286 8.28571C5.14286 6.70857 6.42286 5.42857 8 5.42857C9.57714 5.42857 10.8571 6.70857 10.8571 8.28571C10.8571 9.86286 9.57714 11.1429 8 11.1429Z" fill="#CD892D"/>
</svg>
