<svg width="75" height="70" viewBox="0 0 75 70" fill="none" xmlns="http://www.w3.org/2000/svg">
<path d="M55.957 0.339371C55.6664 0.585426 55.5696 2.60854 55.5696 7.80301V14.9112L50.662 17.1531L45.7866 19.3949L44.8503 17.6999C43.0745 14.5285 41.3633 13.7083 38.7481 14.7199C36.94 15.4033 35.9068 16.3602 35.6808 17.5632C35.5194 18.3013 35.7454 18.9301 36.6171 20.4064C37.2306 21.4727 37.9732 22.4842 38.2315 22.6483C38.6512 22.949 38.5866 23.1951 37.9409 24.562C36.9723 26.5578 36.94 27.7881 37.8117 28.0341C38.6835 28.2802 39.3292 27.7881 39.6198 26.7218C40.201 24.3433 40.4593 24.1793 48.9508 20.2697C53.3095 18.274 56.9579 16.6883 57.0548 16.7703C57.3777 17.0164 56.2799 18.7387 55.3759 19.4496C54.8593 19.8323 51.8889 21.4727 48.7247 23.0857C45.5929 24.6987 42.9454 26.2024 42.8485 26.4484C42.6225 26.9405 43.1714 27.624 43.8171 27.624C44.4306 27.624 44.3983 27.9521 43.3974 30.5493L42.5256 32.8185L40.1364 33.666C38.8449 34.1035 37.5535 34.5682 37.3274 34.6229C36.9723 34.7323 37.0369 34.3768 37.5212 33.0372C38.2638 30.9594 38.1346 30.0846 37.0046 30.0846C36.036 30.0846 35.8422 30.3853 34.7768 33.584C34.131 35.5251 33.8405 37.2201 33.5822 40.6376L33.2593 45.1759L30.5472 49.9329L27.8351 54.69H25.3813C21.3454 54.69 20.1831 55.5922 19.8279 59.0096L19.6665 60.8413L13.758 60.7593C7.07456 60.6499 6.00909 60.8687 4.87904 62.3997C4.36245 63.1105 4.2333 63.7666 4.2333 65.5437V67.8129H2.97411C0.520301 67.8129 -0.706604 68.7151 0.42344 69.6719C0.714023 69.918 9.30236 70 37.0691 70H73.2951L73.6826 69.3985C74.2315 68.5237 73.0691 67.8129 71.035 67.8129H69.453V54.1979C69.453 41.2117 69.4207 40.5829 68.8072 39.7354C67.7741 38.2864 66.7732 38.013 62.1884 38.013H58.1525V29.0457C58.1525 21.1173 58.2171 19.9417 58.7014 19.1215C58.992 18.6021 59.3149 17.4265 59.3794 16.5243C59.5086 15.0753 59.4117 14.7472 58.8306 14.2551C58.4431 13.927 58.1525 13.3256 58.1525 12.8608V12.0406H65.6754C72.5848 12.0406 73.2628 11.9859 73.7471 11.5485C74.07 11.2751 74.296 10.783 74.296 10.4549C74.296 9.82612 74.07 9.60741 71.7131 7.83035L70.3247 6.76412L72.2942 5.2878C73.8117 4.13954 74.296 3.62009 74.296 3.04597C74.296 1.679 74.07 1.65166 65.9014 1.65166H58.2817L57.9265 0.831482C57.5391 -0.0433731 56.6673 -0.262093 55.957 0.339371ZM69.227 4.90504C68.2906 5.61587 67.5158 6.43605 67.5158 6.73678C67.5158 7.01017 68.1938 7.83035 69.0332 8.54117L70.5507 9.85346H64.3516H58.1525V6.70944V3.56541H64.5454H70.9059L69.227 4.90504ZM42.3319 18.0826C42.8808 18.9848 43.236 19.9417 43.1391 20.2151C42.9454 20.7892 40.9113 21.6641 40.2656 21.4453C39.6521 21.254 38.1346 18.7934 38.1346 17.9459C38.1346 17.4811 38.3929 17.1257 39.0387 16.8523C40.7176 16.0595 41.2665 16.2509 42.3319 18.0826ZM55.5696 30.0846C55.5696 37.4662 55.5373 38.013 55.0207 38.013C54.0844 38.013 52.4055 39.0245 51.8566 39.8994C51.5014 40.5282 51.3723 41.6218 51.3723 44.5471C51.3723 48.2106 51.34 48.3472 50.7265 48.2106C49.9516 48.0465 49.9516 48.0465 50.5651 43.8089C51.1786 39.7354 51.2108 39.8174 47.4978 36.1266C46.0772 34.7049 44.9149 33.42 44.9149 33.2559C44.9149 33.0919 45.5283 31.4242 46.2709 29.5104L47.5947 26.0657L51.34 24.1246C53.4064 23.0584 55.1821 22.1562 55.3436 22.1562C55.4727 22.1562 55.5696 25.7103 55.5696 30.0846ZM41.0404 39.0245C39.7167 45.504 40.0718 44.7385 35.6485 49.7416C31.0315 54.9087 31.0961 54.854 30.8701 54.6353C30.7732 54.5533 31.8064 52.5302 33.1624 50.1516L35.6162 45.8047L35.8745 42.6607C36.036 40.9383 36.1651 39.0245 36.1651 38.3957L36.1974 37.2748L38.8772 36.3179C40.3301 35.7985 41.557 35.4431 41.6216 35.5798C41.6862 35.6891 41.4279 37.2475 41.0404 39.0245ZM46.4647 38.2317C47.7561 39.5987 48.4664 40.5555 48.4664 41.0203C48.4664 42.0865 47.5301 47.9098 47.3364 48.0739C46.8844 48.4566 46.5938 47.445 46.2709 44.5744C45.8835 41.321 45.6575 40.8836 43.8171 40.0087C43.3974 39.8174 43.3974 39.4893 43.7203 37.931C43.914 36.9194 44.1723 36.0992 44.2691 36.1266C44.366 36.1266 45.3346 37.0834 46.4647 38.2317ZM65.9983 40.2275C66.3857 40.4188 66.8055 40.6922 66.9346 40.8563C67.0638 41.0203 67.1929 47.1443 67.1929 54.4713V67.8129H60.4126H53.6646L53.5678 64.5048C53.4709 61.7435 53.3741 61.1147 52.9221 60.896C52.5346 60.6773 52.244 60.7046 51.8889 60.9507C51.4691 61.2514 51.3723 61.9349 51.3723 64.5595V67.8129H44.7534H38.1346V59.4197C38.1346 52.0107 38.1992 50.9718 38.6835 50.5344C39.1355 50.097 39.7813 50.0423 44.6889 50.0423C51.6951 50.0423 51.3723 49.8509 51.3723 54.0065C51.3723 57.3145 51.6629 57.916 52.9866 57.5606C53.6324 57.3966 53.6324 57.2052 53.6324 49.6322C53.6324 45.2032 53.7615 41.5671 53.9552 41.157C54.1167 40.7743 54.601 40.3368 54.9884 40.2001C56.0862 39.8447 65.1588 39.8721 65.9983 40.2275ZM43.6557 43.3715C43.7848 43.9456 43.9463 45.2579 44.0754 46.2695L44.3014 48.1285H42.3319C41.2665 48.1285 40.3947 48.0739 40.3947 47.9918C40.3947 47.9098 40.7821 47.363 41.2342 46.7889C41.7185 46.1601 42.2028 44.9572 42.4288 43.9183C42.8162 41.9225 43.3328 41.7038 43.6557 43.3715ZM35.5517 54.1158C35.5517 54.772 35.4548 54.8813 34.9059 54.772C34.3248 54.6353 34.2925 54.608 34.8413 53.9791C35.5517 53.159 35.5517 53.159 35.5517 54.1158ZM34.8413 57.0412C35.5194 57.4512 35.5517 57.5879 35.5517 62.6457V67.8129H28.9328H22.314V62.6457C22.314 56.1116 21.7974 56.6037 28.9328 56.6037C33.0979 56.6037 34.2602 56.6857 34.8413 57.0412ZM19.3436 63.2198C19.5696 63.4112 19.731 64.3954 19.731 65.6804V67.8129H13.1122H6.49339V65.9538C6.49339 62.8644 6.42882 62.8918 13.2414 62.8918C17.2449 62.8918 19.0853 63.0011 19.3436 63.2198Z" fill="#CD892D"/>
</svg>
