<svg width="70" height="67" viewBox="0 0 70 67" fill="none" xmlns="http://www.w3.org/2000/svg">
<path d="M3.93548 -65.0294C3.93548 -63.9411 3.0545 -63.0588 1.96774 -63.0588C0.880988 -63.0588 0 -63.9411 0 -65.0294C0 -66.1177 0.880988 -67 1.96774 -67C3.0545 -67 3.93548 -66.1177 3.93548 -65.0294Z" fill="#CD892D" fill-opacity="0.4"/>
<path d="M15.7419 -65.0294C15.7419 -63.9411 14.8609 -63.0588 13.7742 -63.0588C12.6874 -63.0588 11.8065 -63.9411 11.8065 -65.0294C11.8065 -66.1177 12.6874 -67 13.7742 -67C14.8609 -67 15.7419 -66.1177 15.7419 -65.0294Z" fill="#CD892D" fill-opacity="0.4"/>
<path d="M27.5484 -65.0294C27.5484 -63.9411 26.6674 -63.0588 25.5806 -63.0588C24.4939 -63.0588 23.6129 -63.9411 23.6129 -65.0294C23.6129 -66.1177 24.4939 -67 25.5806 -67C26.6674 -67 27.5484 -66.1177 27.5484 -65.0294Z" fill="#CD892D" fill-opacity="0.4"/>
<path d="M39.3548 -65.0294C39.3548 -63.9411 38.4739 -63.0588 37.3871 -63.0588C36.3003 -63.0588 35.4194 -63.9411 35.4194 -65.0294C35.4194 -66.1177 36.3003 -67 37.3871 -67C38.4739 -67 39.3548 -66.1177 39.3548 -65.0294Z" fill="#CD892D" fill-opacity="0.4"/>
<path d="M51.1613 -65.0294C51.1613 -63.9411 50.2803 -63.0588 49.1935 -63.0588C48.1068 -63.0588 47.2258 -63.9411 47.2258 -65.0294C47.2258 -66.1177 48.1068 -67 49.1935 -67C50.2803 -67 51.1613 -66.1177 51.1613 -65.0294Z" fill="#CD892D" fill-opacity="0.4"/>
<path d="M62.9677 -65.0294C62.9677 -63.9411 62.0868 -63.0588 61 -63.0588C59.9132 -63.0588 59.0323 -63.9411 59.0323 -65.0294C59.0323 -66.1177 59.9132 -67 61 -67C62.0868 -67 62.9677 -66.1177 62.9677 -65.0294Z" fill="#CD892D" fill-opacity="0.4"/>
<path d="M74.7742 -65.0294C74.7742 -63.9411 73.8932 -63.0588 72.8065 -63.0588C71.7197 -63.0588 70.8387 -63.9411 70.8387 -65.0294C70.8387 -66.1177 71.7197 -67 72.8065 -67C73.8932 -67 74.7742 -66.1177 74.7742 -65.0294Z" fill="#CD892D" fill-opacity="0.4"/>
<path d="M86.5806 -65.0294C86.5806 -63.9411 85.6997 -63.0588 84.6129 -63.0588C83.5262 -63.0588 82.6452 -63.9411 82.6452 -65.0294C82.6452 -66.1177 83.5262 -67 84.6129 -67C85.6997 -67 86.5806 -66.1177 86.5806 -65.0294Z" fill="#CD892D" fill-opacity="0.4"/>
<path d="M98.3871 -65.0294C98.3871 -63.9411 97.5061 -63.0588 96.4194 -63.0588C95.3326 -63.0588 94.4516 -63.9411 94.4516 -65.0294C94.4516 -66.1177 95.3326 -67 96.4194 -67C97.5061 -67 98.3871 -66.1177 98.3871 -65.0294Z" fill="#CD892D" fill-opacity="0.4"/>
<path d="M110.194 -65.0294C110.194 -63.9411 109.313 -63.0588 108.226 -63.0588C107.139 -63.0588 106.258 -63.9411 106.258 -65.0294C106.258 -66.1177 107.139 -67 108.226 -67C109.313 -67 110.194 -66.1177 110.194 -65.0294Z" fill="#CD892D" fill-opacity="0.4"/>
<path d="M122 -65.0294C122 -63.9411 121.119 -63.0588 120.032 -63.0588C118.946 -63.0588 118.065 -63.9411 118.065 -65.0294C118.065 -66.1177 118.946 -67 120.032 -67C121.119 -67 122 -66.1177 122 -65.0294Z" fill="#CD892D" fill-opacity="0.4"/>
<path d="M3.93548 -53.2059C3.93548 -52.1176 3.0545 -51.2353 1.96774 -51.2353C0.880988 -51.2353 0 -52.1176 0 -53.2059C0 -54.2942 0.880988 -55.1765 1.96774 -55.1765C3.0545 -55.1765 3.93548 -54.2942 3.93548 -53.2059Z" fill="#CD892D" fill-opacity="0.4"/>
<path d="M15.7419 -53.2059C15.7419 -52.1176 14.8609 -51.2353 13.7742 -51.2353C12.6874 -51.2353 11.8065 -52.1176 11.8065 -53.2059C11.8065 -54.2942 12.6874 -55.1765 13.7742 -55.1765C14.8609 -55.1765 15.7419 -54.2942 15.7419 -53.2059Z" fill="#CD892D" fill-opacity="0.4"/>
<path d="M27.5484 -53.2059C27.5484 -52.1176 26.6674 -51.2353 25.5806 -51.2353C24.4939 -51.2353 23.6129 -52.1176 23.6129 -53.2059C23.6129 -54.2942 24.4939 -55.1765 25.5806 -55.1765C26.6674 -55.1765 27.5484 -54.2942 27.5484 -53.2059Z" fill="#CD892D" fill-opacity="0.4"/>
<path d="M39.3548 -53.2059C39.3548 -52.1176 38.4739 -51.2353 37.3871 -51.2353C36.3003 -51.2353 35.4194 -52.1176 35.4194 -53.2059C35.4194 -54.2942 36.3003 -55.1765 37.3871 -55.1765C38.4739 -55.1765 39.3548 -54.2942 39.3548 -53.2059Z" fill="#CD892D" fill-opacity="0.4"/>
<path d="M51.1613 -53.2059C51.1613 -52.1176 50.2803 -51.2353 49.1935 -51.2353C48.1068 -51.2353 47.2258 -52.1176 47.2258 -53.2059C47.2258 -54.2942 48.1068 -55.1765 49.1935 -55.1765C50.2803 -55.1765 51.1613 -54.2942 51.1613 -53.2059Z" fill="#CD892D" fill-opacity="0.4"/>
<path d="M62.9677 -53.2059C62.9677 -52.1176 62.0868 -51.2353 61 -51.2353C59.9132 -51.2353 59.0323 -52.1176 59.0323 -53.2059C59.0323 -54.2942 59.9132 -55.1765 61 -55.1765C62.0868 -55.1765 62.9677 -54.2942 62.9677 -53.2059Z" fill="#CD892D" fill-opacity="0.4"/>
<path d="M74.7742 -53.2059C74.7742 -52.1176 73.8932 -51.2353 72.8065 -51.2353C71.7197 -51.2353 70.8387 -52.1176 70.8387 -53.2059C70.8387 -54.2942 71.7197 -55.1765 72.8065 -55.1765C73.8932 -55.1765 74.7742 -54.2942 74.7742 -53.2059Z" fill="#CD892D" fill-opacity="0.4"/>
<path d="M86.5806 -53.2059C86.5806 -52.1176 85.6997 -51.2353 84.6129 -51.2353C83.5262 -51.2353 82.6452 -52.1176 82.6452 -53.2059C82.6452 -54.2942 83.5262 -55.1765 84.6129 -55.1765C85.6997 -55.1765 86.5806 -54.2942 86.5806 -53.2059Z" fill="#CD892D" fill-opacity="0.4"/>
<path d="M98.3871 -53.2059C98.3871 -52.1176 97.5061 -51.2353 96.4194 -51.2353C95.3326 -51.2353 94.4516 -52.1176 94.4516 -53.2059C94.4516 -54.2942 95.3326 -55.1765 96.4194 -55.1765C97.5061 -55.1765 98.3871 -54.2942 98.3871 -53.2059Z" fill="#CD892D" fill-opacity="0.4"/>
<path d="M110.194 -53.2059C110.194 -52.1176 109.313 -51.2353 108.226 -51.2353C107.139 -51.2353 106.258 -52.1176 106.258 -53.2059C106.258 -54.2942 107.139 -55.1765 108.226 -55.1765C109.313 -55.1765 110.194 -54.2942 110.194 -53.2059Z" fill="#CD892D" fill-opacity="0.4"/>
<path d="M122 -53.2059C122 -52.1176 121.119 -51.2353 120.032 -51.2353C118.946 -51.2353 118.065 -52.1176 118.065 -53.2059C118.065 -54.2942 118.946 -55.1765 120.032 -55.1765C121.119 -55.1765 122 -54.2942 122 -53.2059Z" fill="#CD892D" fill-opacity="0.4"/>
<path d="M3.93548 -41.3824C3.93548 -40.294 3.0545 -39.4118 1.96774 -39.4118C0.880988 -39.4118 0 -40.294 0 -41.3824C0 -42.4707 0.880988 -43.3529 1.96774 -43.3529C3.0545 -43.3529 3.93548 -42.4707 3.93548 -41.3824Z" fill="#CD892D" fill-opacity="0.4"/>
<path d="M15.7419 -41.3824C15.7419 -40.294 14.8609 -39.4118 13.7742 -39.4118C12.6874 -39.4118 11.8065 -40.294 11.8065 -41.3824C11.8065 -42.4707 12.6874 -43.3529 13.7742 -43.3529C14.8609 -43.3529 15.7419 -42.4707 15.7419 -41.3824Z" fill="#CD892D" fill-opacity="0.4"/>
<path d="M27.5484 -41.3824C27.5484 -40.294 26.6674 -39.4118 25.5806 -39.4118C24.4939 -39.4118 23.6129 -40.294 23.6129 -41.3824C23.6129 -42.4707 24.4939 -43.3529 25.5806 -43.3529C26.6674 -43.3529 27.5484 -42.4707 27.5484 -41.3824Z" fill="#CD892D" fill-opacity="0.4"/>
<path d="M39.3548 -41.3824C39.3548 -40.294 38.4739 -39.4118 37.3871 -39.4118C36.3003 -39.4118 35.4194 -40.294 35.4194 -41.3824C35.4194 -42.4707 36.3003 -43.3529 37.3871 -43.3529C38.4739 -43.3529 39.3548 -42.4707 39.3548 -41.3824Z" fill="#CD892D" fill-opacity="0.4"/>
<path d="M51.1613 -41.3824C51.1613 -40.294 50.2803 -39.4118 49.1935 -39.4118C48.1068 -39.4118 47.2258 -40.294 47.2258 -41.3824C47.2258 -42.4707 48.1068 -43.3529 49.1935 -43.3529C50.2803 -43.3529 51.1613 -42.4707 51.1613 -41.3824Z" fill="#CD892D" fill-opacity="0.4"/>
<path d="M62.9677 -41.3824C62.9677 -40.294 62.0868 -39.4118 61 -39.4118C59.9132 -39.4118 59.0323 -40.294 59.0323 -41.3824C59.0323 -42.4707 59.9132 -43.3529 61 -43.3529C62.0868 -43.3529 62.9677 -42.4707 62.9677 -41.3824Z" fill="#CD892D" fill-opacity="0.4"/>
<path d="M74.7742 -41.3824C74.7742 -40.294 73.8932 -39.4118 72.8065 -39.4118C71.7197 -39.4118 70.8387 -40.294 70.8387 -41.3824C70.8387 -42.4707 71.7197 -43.3529 72.8065 -43.3529C73.8932 -43.3529 74.7742 -42.4707 74.7742 -41.3824Z" fill="#CD892D" fill-opacity="0.4"/>
<path d="M86.5806 -41.3824C86.5806 -40.294 85.6997 -39.4118 84.6129 -39.4118C83.5262 -39.4118 82.6452 -40.294 82.6452 -41.3824C82.6452 -42.4707 83.5262 -43.3529 84.6129 -43.3529C85.6997 -43.3529 86.5806 -42.4707 86.5806 -41.3824Z" fill="#CD892D" fill-opacity="0.4"/>
<path d="M98.3871 -41.3824C98.3871 -40.294 97.5061 -39.4118 96.4194 -39.4118C95.3326 -39.4118 94.4516 -40.294 94.4516 -41.3824C94.4516 -42.4707 95.3326 -43.3529 96.4194 -43.3529C97.5061 -43.3529 98.3871 -42.4707 98.3871 -41.3824Z" fill="#CD892D" fill-opacity="0.4"/>
<path d="M110.194 -41.3824C110.194 -40.294 109.313 -39.4118 108.226 -39.4118C107.139 -39.4118 106.258 -40.294 106.258 -41.3824C106.258 -42.4707 107.139 -43.3529 108.226 -43.3529C109.313 -43.3529 110.194 -42.4707 110.194 -41.3824Z" fill="#CD892D" fill-opacity="0.4"/>
<path d="M122 -41.3824C122 -40.294 121.119 -39.4118 120.032 -39.4118C118.946 -39.4118 118.065 -40.294 118.065 -41.3824C118.065 -42.4707 118.946 -43.3529 120.032 -43.3529C121.119 -43.3529 122 -42.4707 122 -41.3824Z" fill="#CD892D" fill-opacity="0.4"/>
<path d="M3.93548 -29.5588C3.93548 -28.4705 3.0545 -27.5882 1.96774 -27.5882C0.880988 -27.5882 0 -28.4705 0 -29.5588C0 -30.6471 0.880988 -31.5294 1.96774 -31.5294C3.0545 -31.5294 3.93548 -30.6471 3.93548 -29.5588Z" fill="#CD892D" fill-opacity="0.4"/>
<path d="M15.7419 -29.5588C15.7419 -28.4705 14.8609 -27.5882 13.7742 -27.5882C12.6874 -27.5882 11.8065 -28.4705 11.8065 -29.5588C11.8065 -30.6471 12.6874 -31.5294 13.7742 -31.5294C14.8609 -31.5294 15.7419 -30.6471 15.7419 -29.5588Z" fill="#CD892D" fill-opacity="0.4"/>
<path d="M27.5484 -29.5588C27.5484 -28.4705 26.6674 -27.5882 25.5806 -27.5882C24.4939 -27.5882 23.6129 -28.4705 23.6129 -29.5588C23.6129 -30.6471 24.4939 -31.5294 25.5806 -31.5294C26.6674 -31.5294 27.5484 -30.6471 27.5484 -29.5588Z" fill="#CD892D" fill-opacity="0.4"/>
<path d="M39.3548 -29.5588C39.3548 -28.4705 38.4739 -27.5882 37.3871 -27.5882C36.3003 -27.5882 35.4194 -28.4705 35.4194 -29.5588C35.4194 -30.6471 36.3003 -31.5294 37.3871 -31.5294C38.4739 -31.5294 39.3548 -30.6471 39.3548 -29.5588Z" fill="#CD892D" fill-opacity="0.4"/>
<path d="M51.1613 -29.5588C51.1613 -28.4705 50.2803 -27.5882 49.1935 -27.5882C48.1068 -27.5882 47.2258 -28.4705 47.2258 -29.5588C47.2258 -30.6471 48.1068 -31.5294 49.1935 -31.5294C50.2803 -31.5294 51.1613 -30.6471 51.1613 -29.5588Z" fill="#CD892D" fill-opacity="0.4"/>
<path d="M62.9677 -29.5588C62.9677 -28.4705 62.0868 -27.5882 61 -27.5882C59.9132 -27.5882 59.0323 -28.4705 59.0323 -29.5588C59.0323 -30.6471 59.9132 -31.5294 61 -31.5294C62.0868 -31.5294 62.9677 -30.6471 62.9677 -29.5588Z" fill="#CD892D" fill-opacity="0.4"/>
<path d="M74.7742 -29.5588C74.7742 -28.4705 73.8932 -27.5882 72.8065 -27.5882C71.7197 -27.5882 70.8387 -28.4705 70.8387 -29.5588C70.8387 -30.6471 71.7197 -31.5294 72.8065 -31.5294C73.8932 -31.5294 74.7742 -30.6471 74.7742 -29.5588Z" fill="#CD892D" fill-opacity="0.4"/>
<path d="M86.5806 -29.5588C86.5806 -28.4705 85.6997 -27.5882 84.6129 -27.5882C83.5262 -27.5882 82.6452 -28.4705 82.6452 -29.5588C82.6452 -30.6471 83.5262 -31.5294 84.6129 -31.5294C85.6997 -31.5294 86.5806 -30.6471 86.5806 -29.5588Z" fill="#CD892D" fill-opacity="0.4"/>
<path d="M98.3871 -29.5588C98.3871 -28.4705 97.5061 -27.5882 96.4194 -27.5882C95.3326 -27.5882 94.4516 -28.4705 94.4516 -29.5588C94.4516 -30.6471 95.3326 -31.5294 96.4194 -31.5294C97.5061 -31.5294 98.3871 -30.6471 98.3871 -29.5588Z" fill="#CD892D" fill-opacity="0.4"/>
<path d="M110.194 -29.5588C110.194 -28.4705 109.313 -27.5882 108.226 -27.5882C107.139 -27.5882 106.258 -28.4705 106.258 -29.5588C106.258 -30.6471 107.139 -31.5294 108.226 -31.5294C109.313 -31.5294 110.194 -30.6471 110.194 -29.5588Z" fill="#CD892D" fill-opacity="0.4"/>
<path d="M122 -29.5588C122 -28.4705 121.119 -27.5882 120.032 -27.5882C118.946 -27.5882 118.065 -28.4705 118.065 -29.5588C118.065 -30.6471 118.946 -31.5294 120.032 -31.5294C121.119 -31.5294 122 -30.6471 122 -29.5588Z" fill="#CD892D" fill-opacity="0.4"/>
<path d="M3.93548 -17.7353C3.93548 -16.647 3.0545 -15.7647 1.96774 -15.7647C0.880988 -15.7647 0 -16.647 0 -17.7353C0 -18.8236 0.880988 -19.7059 1.96774 -19.7059C3.0545 -19.7059 3.93548 -18.8236 3.93548 -17.7353Z" fill="#CD892D" fill-opacity="0.4"/>
<path d="M15.7419 -17.7353C15.7419 -16.647 14.8609 -15.7647 13.7742 -15.7647C12.6874 -15.7647 11.8065 -16.647 11.8065 -17.7353C11.8065 -18.8236 12.6874 -19.7059 13.7742 -19.7059C14.8609 -19.7059 15.7419 -18.8236 15.7419 -17.7353Z" fill="#CD892D" fill-opacity="0.4"/>
<path d="M27.5484 -17.7353C27.5484 -16.647 26.6674 -15.7647 25.5806 -15.7647C24.4939 -15.7647 23.6129 -16.647 23.6129 -17.7353C23.6129 -18.8236 24.4939 -19.7059 25.5806 -19.7059C26.6674 -19.7059 27.5484 -18.8236 27.5484 -17.7353Z" fill="#CD892D" fill-opacity="0.4"/>
<path d="M39.3548 -17.7353C39.3548 -16.647 38.4739 -15.7647 37.3871 -15.7647C36.3003 -15.7647 35.4194 -16.647 35.4194 -17.7353C35.4194 -18.8236 36.3003 -19.7059 37.3871 -19.7059C38.4739 -19.7059 39.3548 -18.8236 39.3548 -17.7353Z" fill="#CD892D" fill-opacity="0.4"/>
<path d="M51.1613 -17.7353C51.1613 -16.647 50.2803 -15.7647 49.1935 -15.7647C48.1068 -15.7647 47.2258 -16.647 47.2258 -17.7353C47.2258 -18.8236 48.1068 -19.7059 49.1935 -19.7059C50.2803 -19.7059 51.1613 -18.8236 51.1613 -17.7353Z" fill="#CD892D" fill-opacity="0.4"/>
<path d="M62.9677 -17.7353C62.9677 -16.647 62.0868 -15.7647 61 -15.7647C59.9132 -15.7647 59.0323 -16.647 59.0323 -17.7353C59.0323 -18.8236 59.9132 -19.7059 61 -19.7059C62.0868 -19.7059 62.9677 -18.8236 62.9677 -17.7353Z" fill="#CD892D" fill-opacity="0.4"/>
<path d="M74.7742 -17.7353C74.7742 -16.647 73.8932 -15.7647 72.8065 -15.7647C71.7197 -15.7647 70.8387 -16.647 70.8387 -17.7353C70.8387 -18.8236 71.7197 -19.7059 72.8065 -19.7059C73.8932 -19.7059 74.7742 -18.8236 74.7742 -17.7353Z" fill="#CD892D" fill-opacity="0.4"/>
<path d="M86.5806 -17.7353C86.5806 -16.647 85.6997 -15.7647 84.6129 -15.7647C83.5262 -15.7647 82.6452 -16.647 82.6452 -17.7353C82.6452 -18.8236 83.5262 -19.7059 84.6129 -19.7059C85.6997 -19.7059 86.5806 -18.8236 86.5806 -17.7353Z" fill="#CD892D" fill-opacity="0.4"/>
<path d="M98.3871 -17.7353C98.3871 -16.647 97.5061 -15.7647 96.4194 -15.7647C95.3326 -15.7647 94.4516 -16.647 94.4516 -17.7353C94.4516 -18.8236 95.3326 -19.7059 96.4194 -19.7059C97.5061 -19.7059 98.3871 -18.8236 98.3871 -17.7353Z" fill="#CD892D" fill-opacity="0.4"/>
<path d="M110.194 -17.7353C110.194 -16.647 109.313 -15.7647 108.226 -15.7647C107.139 -15.7647 106.258 -16.647 106.258 -17.7353C106.258 -18.8236 107.139 -19.7059 108.226 -19.7059C109.313 -19.7059 110.194 -18.8236 110.194 -17.7353Z" fill="#CD892D" fill-opacity="0.4"/>
<path d="M122 -17.7353C122 -16.647 121.119 -15.7647 120.032 -15.7647C118.946 -15.7647 118.065 -16.647 118.065 -17.7353C118.065 -18.8236 118.946 -19.7059 120.032 -19.7059C121.119 -19.7059 122 -18.8236 122 -17.7353Z" fill="#CD892D" fill-opacity="0.4"/>
<path d="M3.93548 -5.91176C3.93548 -4.82343 3.0545 -3.94117 1.96774 -3.94117C0.880988 -3.94117 0 -4.82343 0 -5.91176C0 -7.00009 0.880988 -7.88235 1.96774 -7.88235C3.0545 -7.88235 3.93548 -7.00009 3.93548 -5.91176Z" fill="#CD892D" fill-opacity="0.4"/>
<path d="M15.7419 -5.91176C15.7419 -4.82343 14.8609 -3.94117 13.7742 -3.94117C12.6874 -3.94117 11.8065 -4.82343 11.8065 -5.91176C11.8065 -7.00009 12.6874 -7.88235 13.7742 -7.88235C14.8609 -7.88235 15.7419 -7.00009 15.7419 -5.91176Z" fill="#CD892D" fill-opacity="0.4"/>
<path d="M27.5484 -5.91176C27.5484 -4.82343 26.6674 -3.94117 25.5806 -3.94117C24.4939 -3.94117 23.6129 -4.82343 23.6129 -5.91176C23.6129 -7.00009 24.4939 -7.88235 25.5806 -7.88235C26.6674 -7.88235 27.5484 -7.00009 27.5484 -5.91176Z" fill="#CD892D" fill-opacity="0.4"/>
<path d="M39.3548 -5.91176C39.3548 -4.82343 38.4739 -3.94117 37.3871 -3.94117C36.3003 -3.94117 35.4194 -4.82343 35.4194 -5.91176C35.4194 -7.00009 36.3003 -7.88235 37.3871 -7.88235C38.4739 -7.88235 39.3548 -7.00009 39.3548 -5.91176Z" fill="#CD892D" fill-opacity="0.4"/>
<path d="M51.1613 -5.91176C51.1613 -4.82343 50.2803 -3.94117 49.1935 -3.94117C48.1068 -3.94117 47.2258 -4.82343 47.2258 -5.91176C47.2258 -7.00009 48.1068 -7.88235 49.1935 -7.88235C50.2803 -7.88235 51.1613 -7.00009 51.1613 -5.91176Z" fill="#CD892D" fill-opacity="0.4"/>
<path d="M62.9677 -5.91176C62.9677 -4.82343 62.0868 -3.94117 61 -3.94117C59.9132 -3.94117 59.0323 -4.82343 59.0323 -5.91176C59.0323 -7.00009 59.9132 -7.88235 61 -7.88235C62.0868 -7.88235 62.9677 -7.00009 62.9677 -5.91176Z" fill="#CD892D" fill-opacity="0.4"/>
<path d="M74.7742 -5.91176C74.7742 -4.82343 73.8932 -3.94117 72.8065 -3.94117C71.7197 -3.94117 70.8387 -4.82343 70.8387 -5.91176C70.8387 -7.00009 71.7197 -7.88235 72.8065 -7.88235C73.8932 -7.88235 74.7742 -7.00009 74.7742 -5.91176Z" fill="#CD892D" fill-opacity="0.4"/>
<path d="M86.5806 -5.91176C86.5806 -4.82343 85.6997 -3.94117 84.6129 -3.94117C83.5262 -3.94117 82.6452 -4.82343 82.6452 -5.91176C82.6452 -7.00009 83.5262 -7.88235 84.6129 -7.88235C85.6997 -7.88235 86.5806 -7.00009 86.5806 -5.91176Z" fill="#CD892D" fill-opacity="0.4"/>
<path d="M98.3871 -5.91176C98.3871 -4.82343 97.5061 -3.94117 96.4194 -3.94117C95.3326 -3.94117 94.4516 -4.82343 94.4516 -5.91176C94.4516 -7.00009 95.3326 -7.88235 96.4194 -7.88235C97.5061 -7.88235 98.3871 -7.00009 98.3871 -5.91176Z" fill="#CD892D" fill-opacity="0.4"/>
<path d="M110.194 -5.91176C110.194 -4.82343 109.313 -3.94117 108.226 -3.94117C107.139 -3.94117 106.258 -4.82343 106.258 -5.91176C106.258 -7.00009 107.139 -7.88235 108.226 -7.88235C109.313 -7.88235 110.194 -7.00009 110.194 -5.91176Z" fill="#CD892D" fill-opacity="0.4"/>
<path d="M122 -5.91176C122 -4.82343 121.119 -3.94117 120.032 -3.94117C118.946 -3.94117 118.065 -4.82343 118.065 -5.91176C118.065 -7.00009 118.946 -7.88235 120.032 -7.88235C121.119 -7.88235 122 -7.00009 122 -5.91176Z" fill="#CD892D" fill-opacity="0.4"/>
<path d="M3.93548 5.91177C3.93548 7.00009 3.0545 7.88236 1.96774 7.88236C0.880988 7.88236 0 7.00009 0 5.91177C0 4.82344 0.880988 3.94118 1.96774 3.94118C3.0545 3.94118 3.93548 4.82344 3.93548 5.91177Z" fill="#CD892D" fill-opacity="0.4"/>
<path d="M15.7419 5.91177C15.7419 7.00009 14.8609 7.88236 13.7742 7.88236C12.6874 7.88236 11.8065 7.00009 11.8065 5.91177C11.8065 4.82344 12.6874 3.94118 13.7742 3.94118C14.8609 3.94118 15.7419 4.82344 15.7419 5.91177Z" fill="#CD892D" fill-opacity="0.4"/>
<path d="M27.5484 5.91177C27.5484 7.00009 26.6674 7.88236 25.5806 7.88236C24.4939 7.88236 23.6129 7.00009 23.6129 5.91177C23.6129 4.82344 24.4939 3.94118 25.5806 3.94118C26.6674 3.94118 27.5484 4.82344 27.5484 5.91177Z" fill="#CD892D" fill-opacity="0.4"/>
<path d="M39.3548 5.91177C39.3548 7.00009 38.4739 7.88236 37.3871 7.88236C36.3003 7.88236 35.4194 7.00009 35.4194 5.91177C35.4194 4.82344 36.3003 3.94118 37.3871 3.94118C38.4739 3.94118 39.3548 4.82344 39.3548 5.91177Z" fill="#CD892D" fill-opacity="0.4"/>
<path d="M51.1613 5.91177C51.1613 7.00009 50.2803 7.88236 49.1935 7.88236C48.1068 7.88236 47.2258 7.00009 47.2258 5.91177C47.2258 4.82344 48.1068 3.94118 49.1935 3.94118C50.2803 3.94118 51.1613 4.82344 51.1613 5.91177Z" fill="#CD892D" fill-opacity="0.4"/>
<path d="M62.9677 5.91177C62.9677 7.00009 62.0868 7.88236 61 7.88236C59.9132 7.88236 59.0323 7.00009 59.0323 5.91177C59.0323 4.82344 59.9132 3.94118 61 3.94118C62.0868 3.94118 62.9677 4.82344 62.9677 5.91177Z" fill="#CD892D" fill-opacity="0.4"/>
<path d="M74.7742 5.91177C74.7742 7.00009 73.8932 7.88236 72.8065 7.88236C71.7197 7.88236 70.8387 7.00009 70.8387 5.91177C70.8387 4.82344 71.7197 3.94118 72.8065 3.94118C73.8932 3.94118 74.7742 4.82344 74.7742 5.91177Z" fill="#CD892D" fill-opacity="0.4"/>
<path d="M86.5806 5.91177C86.5806 7.00009 85.6997 7.88236 84.6129 7.88236C83.5262 7.88236 82.6452 7.00009 82.6452 5.91177C82.6452 4.82344 83.5262 3.94118 84.6129 3.94118C85.6997 3.94118 86.5806 4.82344 86.5806 5.91177Z" fill="#CD892D" fill-opacity="0.4"/>
<path d="M98.3871 5.91177C98.3871 7.00009 97.5061 7.88236 96.4194 7.88236C95.3326 7.88236 94.4516 7.00009 94.4516 5.91177C94.4516 4.82344 95.3326 3.94118 96.4194 3.94118C97.5061 3.94118 98.3871 4.82344 98.3871 5.91177Z" fill="#CD892D" fill-opacity="0.4"/>
<path d="M110.194 5.91177C110.194 7.00009 109.313 7.88236 108.226 7.88236C107.139 7.88236 106.258 7.00009 106.258 5.91177C106.258 4.82344 107.139 3.94118 108.226 3.94118C109.313 3.94118 110.194 4.82344 110.194 5.91177Z" fill="#CD892D" fill-opacity="0.4"/>
<path d="M122 5.91177C122 7.00009 121.119 7.88236 120.032 7.88236C118.946 7.88236 118.065 7.00009 118.065 5.91177C118.065 4.82344 118.946 3.94118 120.032 3.94118C121.119 3.94118 122 4.82344 122 5.91177Z" fill="#CD892D" fill-opacity="0.4"/>
<path d="M3.93548 17.7353C3.93548 18.8236 3.0545 19.7059 1.96774 19.7059C0.880988 19.7059 0 18.8236 0 17.7353C0 16.647 0.880988 15.7647 1.96774 15.7647C3.0545 15.7647 3.93548 16.647 3.93548 17.7353Z" fill="#CD892D" fill-opacity="0.4"/>
<path d="M15.7419 17.7353C15.7419 18.8236 14.8609 19.7059 13.7742 19.7059C12.6874 19.7059 11.8065 18.8236 11.8065 17.7353C11.8065 16.647 12.6874 15.7647 13.7742 15.7647C14.8609 15.7647 15.7419 16.647 15.7419 17.7353Z" fill="#CD892D" fill-opacity="0.4"/>
<path d="M27.5484 17.7353C27.5484 18.8236 26.6674 19.7059 25.5806 19.7059C24.4939 19.7059 23.6129 18.8236 23.6129 17.7353C23.6129 16.647 24.4939 15.7647 25.5806 15.7647C26.6674 15.7647 27.5484 16.647 27.5484 17.7353Z" fill="#CD892D" fill-opacity="0.4"/>
<path d="M39.3548 17.7353C39.3548 18.8236 38.4739 19.7059 37.3871 19.7059C36.3003 19.7059 35.4194 18.8236 35.4194 17.7353C35.4194 16.647 36.3003 15.7647 37.3871 15.7647C38.4739 15.7647 39.3548 16.647 39.3548 17.7353Z" fill="#CD892D" fill-opacity="0.4"/>
<path d="M51.1613 17.7353C51.1613 18.8236 50.2803 19.7059 49.1935 19.7059C48.1068 19.7059 47.2258 18.8236 47.2258 17.7353C47.2258 16.647 48.1068 15.7647 49.1935 15.7647C50.2803 15.7647 51.1613 16.647 51.1613 17.7353Z" fill="#CD892D" fill-opacity="0.4"/>
<path d="M62.9677 17.7353C62.9677 18.8236 62.0868 19.7059 61 19.7059C59.9132 19.7059 59.0323 18.8236 59.0323 17.7353C59.0323 16.647 59.9132 15.7647 61 15.7647C62.0868 15.7647 62.9677 16.647 62.9677 17.7353Z" fill="#CD892D" fill-opacity="0.4"/>
<path d="M74.7742 17.7353C74.7742 18.8236 73.8932 19.7059 72.8065 19.7059C71.7197 19.7059 70.8387 18.8236 70.8387 17.7353C70.8387 16.647 71.7197 15.7647 72.8065 15.7647C73.8932 15.7647 74.7742 16.647 74.7742 17.7353Z" fill="#CD892D" fill-opacity="0.4"/>
<path d="M86.5806 17.7353C86.5806 18.8236 85.6997 19.7059 84.6129 19.7059C83.5262 19.7059 82.6452 18.8236 82.6452 17.7353C82.6452 16.647 83.5262 15.7647 84.6129 15.7647C85.6997 15.7647 86.5806 16.647 86.5806 17.7353Z" fill="#CD892D" fill-opacity="0.4"/>
<path d="M98.3871 17.7353C98.3871 18.8236 97.5061 19.7059 96.4194 19.7059C95.3326 19.7059 94.4516 18.8236 94.4516 17.7353C94.4516 16.647 95.3326 15.7647 96.4194 15.7647C97.5061 15.7647 98.3871 16.647 98.3871 17.7353Z" fill="#CD892D" fill-opacity="0.4"/>
<path d="M110.194 17.7353C110.194 18.8236 109.313 19.7059 108.226 19.7059C107.139 19.7059 106.258 18.8236 106.258 17.7353C106.258 16.647 107.139 15.7647 108.226 15.7647C109.313 15.7647 110.194 16.647 110.194 17.7353Z" fill="#CD892D" fill-opacity="0.4"/>
<path d="M122 17.7353C122 18.8236 121.119 19.7059 120.032 19.7059C118.946 19.7059 118.065 18.8236 118.065 17.7353C118.065 16.647 118.946 15.7647 120.032 15.7647C121.119 15.7647 122 16.647 122 17.7353Z" fill="#CD892D" fill-opacity="0.4"/>
<path d="M3.93548 29.5588C3.93548 30.6472 3.0545 31.5294 1.96774 31.5294C0.880988 31.5294 0 30.6472 0 29.5588C0 28.4705 0.880988 27.5882 1.96774 27.5882C3.0545 27.5882 3.93548 28.4705 3.93548 29.5588Z" fill="#CD892D" fill-opacity="0.4"/>
<path d="M15.7419 29.5588C15.7419 30.6472 14.8609 31.5294 13.7742 31.5294C12.6874 31.5294 11.8065 30.6472 11.8065 29.5588C11.8065 28.4705 12.6874 27.5882 13.7742 27.5882C14.8609 27.5882 15.7419 28.4705 15.7419 29.5588Z" fill="#CD892D" fill-opacity="0.4"/>
<path d="M27.5484 29.5588C27.5484 30.6472 26.6674 31.5294 25.5806 31.5294C24.4939 31.5294 23.6129 30.6472 23.6129 29.5588C23.6129 28.4705 24.4939 27.5882 25.5806 27.5882C26.6674 27.5882 27.5484 28.4705 27.5484 29.5588Z" fill="#CD892D" fill-opacity="0.4"/>
<path d="M39.3548 29.5588C39.3548 30.6472 38.4739 31.5294 37.3871 31.5294C36.3003 31.5294 35.4194 30.6472 35.4194 29.5588C35.4194 28.4705 36.3003 27.5882 37.3871 27.5882C38.4739 27.5882 39.3548 28.4705 39.3548 29.5588Z" fill="#CD892D" fill-opacity="0.4"/>
<path d="M51.1613 29.5588C51.1613 30.6472 50.2803 31.5294 49.1935 31.5294C48.1068 31.5294 47.2258 30.6472 47.2258 29.5588C47.2258 28.4705 48.1068 27.5882 49.1935 27.5882C50.2803 27.5882 51.1613 28.4705 51.1613 29.5588Z" fill="#CD892D" fill-opacity="0.4"/>
<path d="M62.9677 29.5588C62.9677 30.6472 62.0868 31.5294 61 31.5294C59.9132 31.5294 59.0323 30.6472 59.0323 29.5588C59.0323 28.4705 59.9132 27.5882 61 27.5882C62.0868 27.5882 62.9677 28.4705 62.9677 29.5588Z" fill="#CD892D" fill-opacity="0.4"/>
<path d="M74.7742 29.5588C74.7742 30.6472 73.8932 31.5294 72.8065 31.5294C71.7197 31.5294 70.8387 30.6472 70.8387 29.5588C70.8387 28.4705 71.7197 27.5882 72.8065 27.5882C73.8932 27.5882 74.7742 28.4705 74.7742 29.5588Z" fill="#CD892D" fill-opacity="0.4"/>
<path d="M86.5806 29.5588C86.5806 30.6472 85.6997 31.5294 84.6129 31.5294C83.5262 31.5294 82.6452 30.6472 82.6452 29.5588C82.6452 28.4705 83.5262 27.5882 84.6129 27.5882C85.6997 27.5882 86.5806 28.4705 86.5806 29.5588Z" fill="#CD892D" fill-opacity="0.4"/>
<path d="M98.3871 29.5588C98.3871 30.6472 97.5061 31.5294 96.4194 31.5294C95.3326 31.5294 94.4516 30.6472 94.4516 29.5588C94.4516 28.4705 95.3326 27.5882 96.4194 27.5882C97.5061 27.5882 98.3871 28.4705 98.3871 29.5588Z" fill="#CD892D" fill-opacity="0.4"/>
<path d="M110.194 29.5588C110.194 30.6472 109.313 31.5294 108.226 31.5294C107.139 31.5294 106.258 30.6472 106.258 29.5588C106.258 28.4705 107.139 27.5882 108.226 27.5882C109.313 27.5882 110.194 28.4705 110.194 29.5588Z" fill="#CD892D" fill-opacity="0.4"/>
<path d="M122 29.5588C122 30.6472 121.119 31.5294 120.032 31.5294C118.946 31.5294 118.065 30.6472 118.065 29.5588C118.065 28.4705 118.946 27.5882 120.032 27.5882C121.119 27.5882 122 28.4705 122 29.5588Z" fill="#CD892D" fill-opacity="0.4"/>
<path d="M3.93548 41.3824C3.93548 42.4707 3.0545 43.353 1.96774 43.353C0.880988 43.353 0 42.4707 0 41.3824C0 40.294 0.880988 39.4118 1.96774 39.4118C3.0545 39.4118 3.93548 40.294 3.93548 41.3824Z" fill="#CD892D" fill-opacity="0.4"/>
<path d="M15.7419 41.3824C15.7419 42.4707 14.8609 43.353 13.7742 43.353C12.6874 43.353 11.8065 42.4707 11.8065 41.3824C11.8065 40.294 12.6874 39.4118 13.7742 39.4118C14.8609 39.4118 15.7419 40.294 15.7419 41.3824Z" fill="#CD892D" fill-opacity="0.4"/>
<path d="M27.5484 41.3824C27.5484 42.4707 26.6674 43.353 25.5806 43.353C24.4939 43.353 23.6129 42.4707 23.6129 41.3824C23.6129 40.294 24.4939 39.4118 25.5806 39.4118C26.6674 39.4118 27.5484 40.294 27.5484 41.3824Z" fill="#CD892D" fill-opacity="0.4"/>
<path d="M39.3548 41.3824C39.3548 42.4707 38.4739 43.353 37.3871 43.353C36.3003 43.353 35.4194 42.4707 35.4194 41.3824C35.4194 40.294 36.3003 39.4118 37.3871 39.4118C38.4739 39.4118 39.3548 40.294 39.3548 41.3824Z" fill="#CD892D" fill-opacity="0.4"/>
<path d="M51.1613 41.3824C51.1613 42.4707 50.2803 43.353 49.1935 43.353C48.1068 43.353 47.2258 42.4707 47.2258 41.3824C47.2258 40.294 48.1068 39.4118 49.1935 39.4118C50.2803 39.4118 51.1613 40.294 51.1613 41.3824Z" fill="#CD892D" fill-opacity="0.4"/>
<path d="M62.9677 41.3824C62.9677 42.4707 62.0868 43.353 61 43.353C59.9132 43.353 59.0323 42.4707 59.0323 41.3824C59.0323 40.294 59.9132 39.4118 61 39.4118C62.0868 39.4118 62.9677 40.294 62.9677 41.3824Z" fill="#CD892D" fill-opacity="0.4"/>
<path d="M74.7742 41.3824C74.7742 42.4707 73.8932 43.353 72.8065 43.353C71.7197 43.353 70.8387 42.4707 70.8387 41.3824C70.8387 40.294 71.7197 39.4118 72.8065 39.4118C73.8932 39.4118 74.7742 40.294 74.7742 41.3824Z" fill="#CD892D" fill-opacity="0.4"/>
<path d="M86.5806 41.3824C86.5806 42.4707 85.6997 43.353 84.6129 43.353C83.5262 43.353 82.6452 42.4707 82.6452 41.3824C82.6452 40.294 83.5262 39.4118 84.6129 39.4118C85.6997 39.4118 86.5806 40.294 86.5806 41.3824Z" fill="#CD892D" fill-opacity="0.4"/>
<path d="M98.3871 41.3824C98.3871 42.4707 97.5061 43.353 96.4194 43.353C95.3326 43.353 94.4516 42.4707 94.4516 41.3824C94.4516 40.294 95.3326 39.4118 96.4194 39.4118C97.5061 39.4118 98.3871 40.294 98.3871 41.3824Z" fill="#CD892D" fill-opacity="0.4"/>
<path d="M110.194 41.3824C110.194 42.4707 109.313 43.353 108.226 43.353C107.139 43.353 106.258 42.4707 106.258 41.3824C106.258 40.294 107.139 39.4118 108.226 39.4118C109.313 39.4118 110.194 40.294 110.194 41.3824Z" fill="#CD892D" fill-opacity="0.4"/>
<path d="M122 41.3824C122 42.4707 121.119 43.353 120.032 43.353C118.946 43.353 118.065 42.4707 118.065 41.3824C118.065 40.294 118.946 39.4118 120.032 39.4118C121.119 39.4118 122 40.294 122 41.3824Z" fill="#CD892D" fill-opacity="0.4"/>
<path d="M3.93548 53.2059C3.93548 54.2942 3.0545 55.1765 1.96774 55.1765C0.880988 55.1765 0 54.2942 0 53.2059C0 52.1176 0.880988 51.2353 1.96774 51.2353C3.0545 51.2353 3.93548 52.1176 3.93548 53.2059Z" fill="#CD892D" fill-opacity="0.4"/>
<path d="M15.7419 53.2059C15.7419 54.2942 14.8609 55.1765 13.7742 55.1765C12.6874 55.1765 11.8065 54.2942 11.8065 53.2059C11.8065 52.1176 12.6874 51.2353 13.7742 51.2353C14.8609 51.2353 15.7419 52.1176 15.7419 53.2059Z" fill="#CD892D" fill-opacity="0.4"/>
<path d="M27.5484 53.2059C27.5484 54.2942 26.6674 55.1765 25.5806 55.1765C24.4939 55.1765 23.6129 54.2942 23.6129 53.2059C23.6129 52.1176 24.4939 51.2353 25.5806 51.2353C26.6674 51.2353 27.5484 52.1176 27.5484 53.2059Z" fill="#CD892D" fill-opacity="0.4"/>
<path d="M39.3548 53.2059C39.3548 54.2942 38.4739 55.1765 37.3871 55.1765C36.3003 55.1765 35.4194 54.2942 35.4194 53.2059C35.4194 52.1176 36.3003 51.2353 37.3871 51.2353C38.4739 51.2353 39.3548 52.1176 39.3548 53.2059Z" fill="#CD892D" fill-opacity="0.4"/>
<path d="M51.1613 53.2059C51.1613 54.2942 50.2803 55.1765 49.1935 55.1765C48.1068 55.1765 47.2258 54.2942 47.2258 53.2059C47.2258 52.1176 48.1068 51.2353 49.1935 51.2353C50.2803 51.2353 51.1613 52.1176 51.1613 53.2059Z" fill="#CD892D" fill-opacity="0.4"/>
<path d="M62.9677 53.2059C62.9677 54.2942 62.0868 55.1765 61 55.1765C59.9132 55.1765 59.0323 54.2942 59.0323 53.2059C59.0323 52.1176 59.9132 51.2353 61 51.2353C62.0868 51.2353 62.9677 52.1176 62.9677 53.2059Z" fill="#CD892D" fill-opacity="0.4"/>
<path d="M74.7742 53.2059C74.7742 54.2942 73.8932 55.1765 72.8065 55.1765C71.7197 55.1765 70.8387 54.2942 70.8387 53.2059C70.8387 52.1176 71.7197 51.2353 72.8065 51.2353C73.8932 51.2353 74.7742 52.1176 74.7742 53.2059Z" fill="#CD892D" fill-opacity="0.4"/>
<path d="M86.5806 53.2059C86.5806 54.2942 85.6997 55.1765 84.6129 55.1765C83.5262 55.1765 82.6452 54.2942 82.6452 53.2059C82.6452 52.1176 83.5262 51.2353 84.6129 51.2353C85.6997 51.2353 86.5806 52.1176 86.5806 53.2059Z" fill="#CD892D" fill-opacity="0.4"/>
<path d="M98.3871 53.2059C98.3871 54.2942 97.5061 55.1765 96.4194 55.1765C95.3326 55.1765 94.4516 54.2942 94.4516 53.2059C94.4516 52.1176 95.3326 51.2353 96.4194 51.2353C97.5061 51.2353 98.3871 52.1176 98.3871 53.2059Z" fill="#CD892D" fill-opacity="0.4"/>
<path d="M110.194 53.2059C110.194 54.2942 109.313 55.1765 108.226 55.1765C107.139 55.1765 106.258 54.2942 106.258 53.2059C106.258 52.1176 107.139 51.2353 108.226 51.2353C109.313 51.2353 110.194 52.1176 110.194 53.2059Z" fill="#CD892D" fill-opacity="0.4"/>
<path d="M122 53.2059C122 54.2942 121.119 55.1765 120.032 55.1765C118.946 55.1765 118.065 54.2942 118.065 53.2059C118.065 52.1176 118.946 51.2353 120.032 51.2353C121.119 51.2353 122 52.1176 122 53.2059Z" fill="#CD892D" fill-opacity="0.4"/>
<path d="M3.93548 65.0294C3.93548 66.1177 3.0545 67 1.96774 67C0.880988 67 0 66.1177 0 65.0294C0 63.9411 0.880988 63.0588 1.96774 63.0588C3.0545 63.0588 3.93548 63.9411 3.93548 65.0294Z" fill="#CD892D" fill-opacity="0.4"/>
<path d="M15.7419 65.0294C15.7419 66.1177 14.8609 67 13.7742 67C12.6874 67 11.8065 66.1177 11.8065 65.0294C11.8065 63.9411 12.6874 63.0588 13.7742 63.0588C14.8609 63.0588 15.7419 63.9411 15.7419 65.0294Z" fill="#CD892D" fill-opacity="0.4"/>
<path d="M27.5484 65.0294C27.5484 66.1177 26.6674 67 25.5806 67C24.4939 67 23.6129 66.1177 23.6129 65.0294C23.6129 63.9411 24.4939 63.0588 25.5806 63.0588C26.6674 63.0588 27.5484 63.9411 27.5484 65.0294Z" fill="#CD892D" fill-opacity="0.4"/>
<path d="M39.3548 65.0294C39.3548 66.1177 38.4739 67 37.3871 67C36.3003 67 35.4194 66.1177 35.4194 65.0294C35.4194 63.9411 36.3003 63.0588 37.3871 63.0588C38.4739 63.0588 39.3548 63.9411 39.3548 65.0294Z" fill="#CD892D" fill-opacity="0.4"/>
<path d="M51.1613 65.0294C51.1613 66.1177 50.2803 67 49.1935 67C48.1068 67 47.2258 66.1177 47.2258 65.0294C47.2258 63.9411 48.1068 63.0588 49.1935 63.0588C50.2803 63.0588 51.1613 63.9411 51.1613 65.0294Z" fill="#CD892D" fill-opacity="0.4"/>
<path d="M62.9677 65.0294C62.9677 66.1177 62.0868 67 61 67C59.9132 67 59.0323 66.1177 59.0323 65.0294C59.0323 63.9411 59.9132 63.0588 61 63.0588C62.0868 63.0588 62.9677 63.9411 62.9677 65.0294Z" fill="#CD892D" fill-opacity="0.4"/>
<path d="M74.7742 65.0294C74.7742 66.1177 73.8932 67 72.8065 67C71.7197 67 70.8387 66.1177 70.8387 65.0294C70.8387 63.9411 71.7197 63.0588 72.8065 63.0588C73.8932 63.0588 74.7742 63.9411 74.7742 65.0294Z" fill="#CD892D" fill-opacity="0.4"/>
<path d="M86.5806 65.0294C86.5806 66.1177 85.6997 67 84.6129 67C83.5262 67 82.6452 66.1177 82.6452 65.0294C82.6452 63.9411 83.5262 63.0588 84.6129 63.0588C85.6997 63.0588 86.5806 63.9411 86.5806 65.0294Z" fill="#CD892D" fill-opacity="0.4"/>
<path d="M98.3871 65.0294C98.3871 66.1177 97.5061 67 96.4194 67C95.3326 67 94.4516 66.1177 94.4516 65.0294C94.4516 63.9411 95.3326 63.0588 96.4194 63.0588C97.5061 63.0588 98.3871 63.9411 98.3871 65.0294Z" fill="#CD892D" fill-opacity="0.4"/>
<path d="M110.194 65.0294C110.194 66.1177 109.313 67 108.226 67C107.139 67 106.258 66.1177 106.258 65.0294C106.258 63.9411 107.139 63.0588 108.226 63.0588C109.313 63.0588 110.194 63.9411 110.194 65.0294Z" fill="#CD892D" fill-opacity="0.4"/>
<path d="M122 65.0294C122 66.1177 121.119 67 120.032 67C118.946 67 118.065 66.1177 118.065 65.0294C118.065 63.9411 118.946 63.0588 120.032 63.0588C121.119 63.0588 122 63.9411 122 65.0294Z" fill="#CD892D" fill-opacity="0.4"/>
</svg>
