<svg width="77" height="318" viewBox="0 0 77 318" fill="none" xmlns="http://www.w3.org/2000/svg">
<path d="M-203.645 4.67647C-203.645 7.25921 -205.739 9.35294 -208.323 9.35294C-210.906 9.35294 -213 7.25921 -213 4.67647C-213 2.09373 -210.906 0 -208.323 0C-205.739 0 -203.645 2.09373 -203.645 4.67647Z" fill="#CD892D" fill-opacity="0.5"/>
<path d="M-175.581 4.67647C-175.581 7.25921 -177.675 9.35294 -180.258 9.35294C-182.841 9.35294 -184.935 7.25921 -184.935 4.67647C-184.935 2.09373 -182.841 0 -180.258 0C-177.675 0 -175.581 2.09373 -175.581 4.67647Z" fill="#CD892D" fill-opacity="0.5"/>
<path d="M-147.516 4.67647C-147.516 7.25921 -149.61 9.35294 -152.194 9.35294C-154.777 9.35294 -156.871 7.25921 -156.871 4.67647C-156.871 2.09373 -154.777 0 -152.194 0C-149.61 0 -147.516 2.09373 -147.516 4.67647Z" fill="#CD892D" fill-opacity="0.5"/>
<path d="M-119.452 4.67647C-119.452 7.25921 -121.546 9.35294 -124.129 9.35294C-126.712 9.35294 -128.806 7.25921 -128.806 4.67647C-128.806 2.09373 -126.712 0 -124.129 0C-121.546 0 -119.452 2.09373 -119.452 4.67647Z" fill="#CD892D" fill-opacity="0.5"/>
<path d="M-91.3871 4.67647C-91.3871 7.25921 -93.4813 9.35294 -96.0645 9.35294C-98.6478 9.35294 -100.742 7.25921 -100.742 4.67647C-100.742 2.09373 -98.6478 0 -96.0645 0C-93.4813 0 -91.3871 2.09373 -91.3871 4.67647Z" fill="#CD892D" fill-opacity="0.5"/>
<path d="M-63.3226 4.67647C-63.3226 7.25921 -65.4167 9.35294 -68 9.35294C-70.5833 9.35294 -72.6774 7.25921 -72.6774 4.67647C-72.6774 2.09373 -70.5833 0 -68 0C-65.4167 0 -63.3226 2.09373 -63.3226 4.67647Z" fill="#CD892D" fill-opacity="0.5"/>
<path d="M-35.2581 4.67647C-35.2581 7.25921 -37.3522 9.35294 -39.9355 9.35294C-42.5187 9.35294 -44.6129 7.25921 -44.6129 4.67647C-44.6129 2.09373 -42.5187 0 -39.9355 0C-37.3522 0 -35.2581 2.09373 -35.2581 4.67647Z" fill="#CD892D" fill-opacity="0.5"/>
<path d="M-7.19356 4.67647C-7.19356 7.25921 -9.28769 9.35294 -11.871 9.35294C-14.4542 9.35294 -16.5484 7.25921 -16.5484 4.67647C-16.5484 2.09373 -14.4542 0 -11.871 0C-9.28769 0 -7.19356 2.09373 -7.19356 4.67647Z" fill="#CD892D" fill-opacity="0.5"/>
<path d="M20.871 4.67647C20.871 7.25921 18.7768 9.35294 16.1936 9.35294C13.6103 9.35294 11.5161 7.25921 11.5161 4.67647C11.5161 2.09373 13.6103 0 16.1936 0C18.7768 0 20.871 2.09373 20.871 4.67647Z" fill="#CD892D" fill-opacity="0.5"/>
<path d="M48.9355 4.67647C48.9355 7.25921 46.8413 9.35294 44.2581 9.35294C41.6748 9.35294 39.5807 7.25921 39.5807 4.67647C39.5807 2.09373 41.6748 0 44.2581 0C46.8413 0 48.9355 2.09373 48.9355 4.67647Z" fill="#CD892D" fill-opacity="0.5"/>
<path d="M77 4.67647C77 7.25921 74.9059 9.35294 72.3226 9.35294C69.7393 9.35294 67.6452 7.25921 67.6452 4.67647C67.6452 2.09373 69.7393 0 72.3226 0C74.9059 0 77 2.09373 77 4.67647Z" fill="#CD892D" fill-opacity="0.5"/>
<path d="M-203.645 32.7353C-203.645 35.318 -205.739 37.4118 -208.323 37.4118C-210.906 37.4118 -213 35.318 -213 32.7353C-213 30.1526 -210.906 28.0588 -208.323 28.0588C-205.739 28.0588 -203.645 30.1526 -203.645 32.7353Z" fill="#CD892D" fill-opacity="0.5"/>
<path d="M-175.581 32.7353C-175.581 35.318 -177.675 37.4118 -180.258 37.4118C-182.841 37.4118 -184.935 35.318 -184.935 32.7353C-184.935 30.1526 -182.841 28.0588 -180.258 28.0588C-177.675 28.0588 -175.581 30.1526 -175.581 32.7353Z" fill="#CD892D" fill-opacity="0.5"/>
<path d="M-147.516 32.7353C-147.516 35.318 -149.61 37.4118 -152.194 37.4118C-154.777 37.4118 -156.871 35.318 -156.871 32.7353C-156.871 30.1526 -154.777 28.0588 -152.194 28.0588C-149.61 28.0588 -147.516 30.1526 -147.516 32.7353Z" fill="#CD892D" fill-opacity="0.5"/>
<path d="M-119.452 32.7353C-119.452 35.318 -121.546 37.4118 -124.129 37.4118C-126.712 37.4118 -128.806 35.318 -128.806 32.7353C-128.806 30.1526 -126.712 28.0588 -124.129 28.0588C-121.546 28.0588 -119.452 30.1526 -119.452 32.7353Z" fill="#CD892D" fill-opacity="0.5"/>
<path d="M-91.3871 32.7353C-91.3871 35.318 -93.4813 37.4118 -96.0645 37.4118C-98.6478 37.4118 -100.742 35.318 -100.742 32.7353C-100.742 30.1526 -98.6478 28.0588 -96.0645 28.0588C-93.4813 28.0588 -91.3871 30.1526 -91.3871 32.7353Z" fill="#CD892D" fill-opacity="0.5"/>
<path d="M-63.3226 32.7353C-63.3226 35.318 -65.4167 37.4118 -68 37.4118C-70.5833 37.4118 -72.6774 35.318 -72.6774 32.7353C-72.6774 30.1526 -70.5833 28.0588 -68 28.0588C-65.4167 28.0588 -63.3226 30.1526 -63.3226 32.7353Z" fill="#CD892D" fill-opacity="0.5"/>
<path d="M-35.2581 32.7353C-35.2581 35.318 -37.3522 37.4118 -39.9355 37.4118C-42.5187 37.4118 -44.6129 35.318 -44.6129 32.7353C-44.6129 30.1526 -42.5187 28.0588 -39.9355 28.0588C-37.3522 28.0588 -35.2581 30.1526 -35.2581 32.7353Z" fill="#CD892D" fill-opacity="0.5"/>
<path d="M-7.19356 32.7353C-7.19356 35.318 -9.28769 37.4118 -11.871 37.4118C-14.4542 37.4118 -16.5484 35.318 -16.5484 32.7353C-16.5484 30.1526 -14.4542 28.0588 -11.871 28.0588C-9.28769 28.0588 -7.19356 30.1526 -7.19356 32.7353Z" fill="#CD892D" fill-opacity="0.5"/>
<path d="M20.871 32.7353C20.871 35.318 18.7768 37.4118 16.1936 37.4118C13.6103 37.4118 11.5161 35.318 11.5161 32.7353C11.5161 30.1526 13.6103 28.0588 16.1936 28.0588C18.7768 28.0588 20.871 30.1526 20.871 32.7353Z" fill="#CD892D" fill-opacity="0.5"/>
<path d="M48.9355 32.7353C48.9355 35.318 46.8413 37.4118 44.2581 37.4118C41.6748 37.4118 39.5807 35.318 39.5807 32.7353C39.5807 30.1526 41.6748 28.0588 44.2581 28.0588C46.8413 28.0588 48.9355 30.1526 48.9355 32.7353Z" fill="#CD892D" fill-opacity="0.5"/>
<path d="M77 32.7353C77 35.318 74.9059 37.4118 72.3226 37.4118C69.7393 37.4118 67.6452 35.318 67.6452 32.7353C67.6452 30.1526 69.7393 28.0588 72.3226 28.0588C74.9059 28.0588 77 30.1526 77 32.7353Z" fill="#CD892D" fill-opacity="0.5"/>
<path d="M-203.645 60.7941C-203.645 63.3769 -205.739 65.4706 -208.323 65.4706C-210.906 65.4706 -213 63.3769 -213 60.7941C-213 58.2114 -210.906 56.1176 -208.323 56.1176C-205.739 56.1176 -203.645 58.2114 -203.645 60.7941Z" fill="#CD892D" fill-opacity="0.5"/>
<path d="M-175.581 60.7941C-175.581 63.3769 -177.675 65.4706 -180.258 65.4706C-182.841 65.4706 -184.935 63.3769 -184.935 60.7941C-184.935 58.2114 -182.841 56.1176 -180.258 56.1176C-177.675 56.1176 -175.581 58.2114 -175.581 60.7941Z" fill="#CD892D" fill-opacity="0.5"/>
<path d="M-147.516 60.7941C-147.516 63.3769 -149.61 65.4706 -152.194 65.4706C-154.777 65.4706 -156.871 63.3769 -156.871 60.7941C-156.871 58.2114 -154.777 56.1176 -152.194 56.1176C-149.61 56.1176 -147.516 58.2114 -147.516 60.7941Z" fill="#CD892D" fill-opacity="0.5"/>
<path d="M-119.452 60.7941C-119.452 63.3769 -121.546 65.4706 -124.129 65.4706C-126.712 65.4706 -128.806 63.3769 -128.806 60.7941C-128.806 58.2114 -126.712 56.1176 -124.129 56.1176C-121.546 56.1176 -119.452 58.2114 -119.452 60.7941Z" fill="#CD892D" fill-opacity="0.5"/>
<path d="M-91.3871 60.7941C-91.3871 63.3769 -93.4813 65.4706 -96.0645 65.4706C-98.6478 65.4706 -100.742 63.3769 -100.742 60.7941C-100.742 58.2114 -98.6478 56.1176 -96.0645 56.1176C-93.4813 56.1176 -91.3871 58.2114 -91.3871 60.7941Z" fill="#CD892D" fill-opacity="0.5"/>
<path d="M-63.3226 60.7941C-63.3226 63.3769 -65.4167 65.4706 -68 65.4706C-70.5833 65.4706 -72.6774 63.3769 -72.6774 60.7941C-72.6774 58.2114 -70.5833 56.1176 -68 56.1176C-65.4167 56.1176 -63.3226 58.2114 -63.3226 60.7941Z" fill="#CD892D" fill-opacity="0.5"/>
<path d="M-35.2581 60.7941C-35.2581 63.3769 -37.3522 65.4706 -39.9355 65.4706C-42.5187 65.4706 -44.6129 63.3769 -44.6129 60.7941C-44.6129 58.2114 -42.5187 56.1176 -39.9355 56.1176C-37.3522 56.1176 -35.2581 58.2114 -35.2581 60.7941Z" fill="#CD892D" fill-opacity="0.5"/>
<path d="M-7.19356 60.7941C-7.19356 63.3769 -9.28769 65.4706 -11.871 65.4706C-14.4542 65.4706 -16.5484 63.3769 -16.5484 60.7941C-16.5484 58.2114 -14.4542 56.1176 -11.871 56.1176C-9.28769 56.1176 -7.19356 58.2114 -7.19356 60.7941Z" fill="#CD892D" fill-opacity="0.5"/>
<path d="M20.871 60.7941C20.871 63.3769 18.7768 65.4706 16.1936 65.4706C13.6103 65.4706 11.5161 63.3769 11.5161 60.7941C11.5161 58.2114 13.6103 56.1176 16.1936 56.1176C18.7768 56.1176 20.871 58.2114 20.871 60.7941Z" fill="#CD892D" fill-opacity="0.5"/>
<path d="M48.9355 60.7941C48.9355 63.3769 46.8413 65.4706 44.2581 65.4706C41.6748 65.4706 39.5807 63.3769 39.5807 60.7941C39.5807 58.2114 41.6748 56.1176 44.2581 56.1176C46.8413 56.1176 48.9355 58.2114 48.9355 60.7941Z" fill="#CD892D" fill-opacity="0.5"/>
<path d="M77 60.7941C77 63.3769 74.9059 65.4706 72.3226 65.4706C69.7393 65.4706 67.6452 63.3769 67.6452 60.7941C67.6452 58.2114 69.7393 56.1176 72.3226 56.1176C74.9059 56.1176 77 58.2114 77 60.7941Z" fill="#CD892D" fill-opacity="0.5"/>
<path d="M-203.645 88.853C-203.645 91.4357 -205.739 93.5294 -208.323 93.5294C-210.906 93.5294 -213 91.4357 -213 88.853C-213 86.2702 -210.906 84.1765 -208.323 84.1765C-205.739 84.1765 -203.645 86.2702 -203.645 88.853Z" fill="#CD892D" fill-opacity="0.5"/>
<path d="M-175.581 88.853C-175.581 91.4357 -177.675 93.5294 -180.258 93.5294C-182.841 93.5294 -184.935 91.4357 -184.935 88.853C-184.935 86.2702 -182.841 84.1765 -180.258 84.1765C-177.675 84.1765 -175.581 86.2702 -175.581 88.853Z" fill="#CD892D" fill-opacity="0.5"/>
<path d="M-147.516 88.853C-147.516 91.4357 -149.61 93.5294 -152.194 93.5294C-154.777 93.5294 -156.871 91.4357 -156.871 88.853C-156.871 86.2702 -154.777 84.1765 -152.194 84.1765C-149.61 84.1765 -147.516 86.2702 -147.516 88.853Z" fill="#CD892D" fill-opacity="0.5"/>
<path d="M-119.452 88.853C-119.452 91.4357 -121.546 93.5294 -124.129 93.5294C-126.712 93.5294 -128.806 91.4357 -128.806 88.853C-128.806 86.2702 -126.712 84.1765 -124.129 84.1765C-121.546 84.1765 -119.452 86.2702 -119.452 88.853Z" fill="#CD892D" fill-opacity="0.5"/>
<path d="M-91.3871 88.853C-91.3871 91.4357 -93.4813 93.5294 -96.0645 93.5294C-98.6478 93.5294 -100.742 91.4357 -100.742 88.853C-100.742 86.2702 -98.6478 84.1765 -96.0645 84.1765C-93.4813 84.1765 -91.3871 86.2702 -91.3871 88.853Z" fill="#CD892D" fill-opacity="0.5"/>
<path d="M-63.3226 88.853C-63.3226 91.4357 -65.4167 93.5294 -68 93.5294C-70.5833 93.5294 -72.6774 91.4357 -72.6774 88.853C-72.6774 86.2702 -70.5833 84.1765 -68 84.1765C-65.4167 84.1765 -63.3226 86.2702 -63.3226 88.853Z" fill="#CD892D" fill-opacity="0.5"/>
<path d="M-35.2581 88.853C-35.2581 91.4357 -37.3522 93.5294 -39.9355 93.5294C-42.5187 93.5294 -44.6129 91.4357 -44.6129 88.853C-44.6129 86.2702 -42.5187 84.1765 -39.9355 84.1765C-37.3522 84.1765 -35.2581 86.2702 -35.2581 88.853Z" fill="#CD892D" fill-opacity="0.5"/>
<path d="M-7.19356 88.853C-7.19356 91.4357 -9.28769 93.5294 -11.871 93.5294C-14.4542 93.5294 -16.5484 91.4357 -16.5484 88.853C-16.5484 86.2702 -14.4542 84.1765 -11.871 84.1765C-9.28769 84.1765 -7.19356 86.2702 -7.19356 88.853Z" fill="#CD892D" fill-opacity="0.5"/>
<path d="M20.871 88.853C20.871 91.4357 18.7768 93.5294 16.1936 93.5294C13.6103 93.5294 11.5161 91.4357 11.5161 88.853C11.5161 86.2702 13.6103 84.1765 16.1936 84.1765C18.7768 84.1765 20.871 86.2702 20.871 88.853Z" fill="#CD892D" fill-opacity="0.5"/>
<path d="M48.9355 88.853C48.9355 91.4357 46.8413 93.5294 44.2581 93.5294C41.6748 93.5294 39.5807 91.4357 39.5807 88.853C39.5807 86.2702 41.6748 84.1765 44.2581 84.1765C46.8413 84.1765 48.9355 86.2702 48.9355 88.853Z" fill="#CD892D" fill-opacity="0.5"/>
<path d="M77 88.853C77 91.4357 74.9059 93.5294 72.3226 93.5294C69.7393 93.5294 67.6452 91.4357 67.6452 88.853C67.6452 86.2702 69.7393 84.1765 72.3226 84.1765C74.9059 84.1765 77 86.2702 77 88.853Z" fill="#CD892D" fill-opacity="0.5"/>
<path d="M-203.645 116.912C-203.645 119.495 -205.739 121.588 -208.323 121.588C-210.906 121.588 -213 119.495 -213 116.912C-213 114.329 -210.906 112.235 -208.323 112.235C-205.739 112.235 -203.645 114.329 -203.645 116.912Z" fill="#CD892D" fill-opacity="0.5"/>
<path d="M-175.581 116.912C-175.581 119.495 -177.675 121.588 -180.258 121.588C-182.841 121.588 -184.935 119.495 -184.935 116.912C-184.935 114.329 -182.841 112.235 -180.258 112.235C-177.675 112.235 -175.581 114.329 -175.581 116.912Z" fill="#CD892D" fill-opacity="0.5"/>
<path d="M-147.516 116.912C-147.516 119.495 -149.61 121.588 -152.194 121.588C-154.777 121.588 -156.871 119.495 -156.871 116.912C-156.871 114.329 -154.777 112.235 -152.194 112.235C-149.61 112.235 -147.516 114.329 -147.516 116.912Z" fill="#CD892D" fill-opacity="0.5"/>
<path d="M-119.452 116.912C-119.452 119.495 -121.546 121.588 -124.129 121.588C-126.712 121.588 -128.806 119.495 -128.806 116.912C-128.806 114.329 -126.712 112.235 -124.129 112.235C-121.546 112.235 -119.452 114.329 -119.452 116.912Z" fill="#CD892D" fill-opacity="0.5"/>
<path d="M-91.3871 116.912C-91.3871 119.495 -93.4813 121.588 -96.0645 121.588C-98.6478 121.588 -100.742 119.495 -100.742 116.912C-100.742 114.329 -98.6478 112.235 -96.0645 112.235C-93.4813 112.235 -91.3871 114.329 -91.3871 116.912Z" fill="#CD892D" fill-opacity="0.5"/>
<path d="M-63.3226 116.912C-63.3226 119.495 -65.4167 121.588 -68 121.588C-70.5833 121.588 -72.6774 119.495 -72.6774 116.912C-72.6774 114.329 -70.5833 112.235 -68 112.235C-65.4167 112.235 -63.3226 114.329 -63.3226 116.912Z" fill="#CD892D" fill-opacity="0.5"/>
<path d="M-35.2581 116.912C-35.2581 119.495 -37.3522 121.588 -39.9355 121.588C-42.5187 121.588 -44.6129 119.495 -44.6129 116.912C-44.6129 114.329 -42.5187 112.235 -39.9355 112.235C-37.3522 112.235 -35.2581 114.329 -35.2581 116.912Z" fill="#CD892D" fill-opacity="0.5"/>
<path d="M-7.19356 116.912C-7.19356 119.495 -9.28769 121.588 -11.871 121.588C-14.4542 121.588 -16.5484 119.495 -16.5484 116.912C-16.5484 114.329 -14.4542 112.235 -11.871 112.235C-9.28769 112.235 -7.19356 114.329 -7.19356 116.912Z" fill="#CD892D" fill-opacity="0.5"/>
<path d="M20.871 116.912C20.871 119.495 18.7768 121.588 16.1936 121.588C13.6103 121.588 11.5161 119.495 11.5161 116.912C11.5161 114.329 13.6103 112.235 16.1936 112.235C18.7768 112.235 20.871 114.329 20.871 116.912Z" fill="#CD892D" fill-opacity="0.5"/>
<path d="M48.9355 116.912C48.9355 119.495 46.8413 121.588 44.2581 121.588C41.6748 121.588 39.5807 119.495 39.5807 116.912C39.5807 114.329 41.6748 112.235 44.2581 112.235C46.8413 112.235 48.9355 114.329 48.9355 116.912Z" fill="#CD892D" fill-opacity="0.5"/>
<path d="M77 116.912C77 119.495 74.9059 121.588 72.3226 121.588C69.7393 121.588 67.6452 119.495 67.6452 116.912C67.6452 114.329 69.7393 112.235 72.3226 112.235C74.9059 112.235 77 114.329 77 116.912Z" fill="#CD892D" fill-opacity="0.5"/>
<path d="M-203.645 144.971C-203.645 147.553 -205.739 149.647 -208.323 149.647C-210.906 149.647 -213 147.553 -213 144.971C-213 142.388 -210.906 140.294 -208.323 140.294C-205.739 140.294 -203.645 142.388 -203.645 144.971Z" fill="#CD892D" fill-opacity="0.5"/>
<path d="M-175.581 144.971C-175.581 147.553 -177.675 149.647 -180.258 149.647C-182.841 149.647 -184.935 147.553 -184.935 144.971C-184.935 142.388 -182.841 140.294 -180.258 140.294C-177.675 140.294 -175.581 142.388 -175.581 144.971Z" fill="#CD892D" fill-opacity="0.5"/>
<path d="M-147.516 144.971C-147.516 147.553 -149.61 149.647 -152.194 149.647C-154.777 149.647 -156.871 147.553 -156.871 144.971C-156.871 142.388 -154.777 140.294 -152.194 140.294C-149.61 140.294 -147.516 142.388 -147.516 144.971Z" fill="#CD892D" fill-opacity="0.5"/>
<path d="M-119.452 144.971C-119.452 147.553 -121.546 149.647 -124.129 149.647C-126.712 149.647 -128.806 147.553 -128.806 144.971C-128.806 142.388 -126.712 140.294 -124.129 140.294C-121.546 140.294 -119.452 142.388 -119.452 144.971Z" fill="#CD892D" fill-opacity="0.5"/>
<path d="M-91.3871 144.971C-91.3871 147.553 -93.4813 149.647 -96.0645 149.647C-98.6478 149.647 -100.742 147.553 -100.742 144.971C-100.742 142.388 -98.6478 140.294 -96.0645 140.294C-93.4813 140.294 -91.3871 142.388 -91.3871 144.971Z" fill="#CD892D" fill-opacity="0.5"/>
<path d="M-63.3226 144.971C-63.3226 147.553 -65.4167 149.647 -68 149.647C-70.5833 149.647 -72.6774 147.553 -72.6774 144.971C-72.6774 142.388 -70.5833 140.294 -68 140.294C-65.4167 140.294 -63.3226 142.388 -63.3226 144.971Z" fill="#CD892D" fill-opacity="0.5"/>
<path d="M-35.2581 144.971C-35.2581 147.553 -37.3522 149.647 -39.9355 149.647C-42.5187 149.647 -44.6129 147.553 -44.6129 144.971C-44.6129 142.388 -42.5187 140.294 -39.9355 140.294C-37.3522 140.294 -35.2581 142.388 -35.2581 144.971Z" fill="#CD892D" fill-opacity="0.5"/>
<path d="M-7.19356 144.971C-7.19356 147.553 -9.28769 149.647 -11.871 149.647C-14.4542 149.647 -16.5484 147.553 -16.5484 144.971C-16.5484 142.388 -14.4542 140.294 -11.871 140.294C-9.28769 140.294 -7.19356 142.388 -7.19356 144.971Z" fill="#CD892D" fill-opacity="0.5"/>
<path d="M20.871 144.971C20.871 147.553 18.7768 149.647 16.1936 149.647C13.6103 149.647 11.5161 147.553 11.5161 144.971C11.5161 142.388 13.6103 140.294 16.1936 140.294C18.7768 140.294 20.871 142.388 20.871 144.971Z" fill="#CD892D" fill-opacity="0.5"/>
<path d="M48.9355 144.971C48.9355 147.553 46.8413 149.647 44.2581 149.647C41.6748 149.647 39.5807 147.553 39.5807 144.971C39.5807 142.388 41.6748 140.294 44.2581 140.294C46.8413 140.294 48.9355 142.388 48.9355 144.971Z" fill="#CD892D" fill-opacity="0.5"/>
<path d="M77 144.971C77 147.553 74.9059 149.647 72.3226 149.647C69.7393 149.647 67.6452 147.553 67.6452 144.971C67.6452 142.388 69.7393 140.294 72.3226 140.294C74.9059 140.294 77 142.388 77 144.971Z" fill="#CD892D" fill-opacity="0.5"/>
<path d="M-203.645 173.029C-203.645 175.612 -205.739 177.706 -208.323 177.706C-210.906 177.706 -213 175.612 -213 173.029C-213 170.447 -210.906 168.353 -208.323 168.353C-205.739 168.353 -203.645 170.447 -203.645 173.029Z" fill="#CD892D" fill-opacity="0.5"/>
<path d="M-175.581 173.029C-175.581 175.612 -177.675 177.706 -180.258 177.706C-182.841 177.706 -184.935 175.612 -184.935 173.029C-184.935 170.447 -182.841 168.353 -180.258 168.353C-177.675 168.353 -175.581 170.447 -175.581 173.029Z" fill="#CD892D" fill-opacity="0.5"/>
<path d="M-147.516 173.029C-147.516 175.612 -149.61 177.706 -152.194 177.706C-154.777 177.706 -156.871 175.612 -156.871 173.029C-156.871 170.447 -154.777 168.353 -152.194 168.353C-149.61 168.353 -147.516 170.447 -147.516 173.029Z" fill="#CD892D" fill-opacity="0.5"/>
<path d="M-119.452 173.029C-119.452 175.612 -121.546 177.706 -124.129 177.706C-126.712 177.706 -128.806 175.612 -128.806 173.029C-128.806 170.447 -126.712 168.353 -124.129 168.353C-121.546 168.353 -119.452 170.447 -119.452 173.029Z" fill="#CD892D" fill-opacity="0.5"/>
<path d="M-91.3871 173.029C-91.3871 175.612 -93.4813 177.706 -96.0645 177.706C-98.6478 177.706 -100.742 175.612 -100.742 173.029C-100.742 170.447 -98.6478 168.353 -96.0645 168.353C-93.4813 168.353 -91.3871 170.447 -91.3871 173.029Z" fill="#CD892D" fill-opacity="0.5"/>
<path d="M-63.3226 173.029C-63.3226 175.612 -65.4167 177.706 -68 177.706C-70.5833 177.706 -72.6774 175.612 -72.6774 173.029C-72.6774 170.447 -70.5833 168.353 -68 168.353C-65.4167 168.353 -63.3226 170.447 -63.3226 173.029Z" fill="#CD892D" fill-opacity="0.5"/>
<path d="M-35.2581 173.029C-35.2581 175.612 -37.3522 177.706 -39.9355 177.706C-42.5187 177.706 -44.6129 175.612 -44.6129 173.029C-44.6129 170.447 -42.5187 168.353 -39.9355 168.353C-37.3522 168.353 -35.2581 170.447 -35.2581 173.029Z" fill="#CD892D" fill-opacity="0.5"/>
<path d="M-7.19356 173.029C-7.19356 175.612 -9.28769 177.706 -11.871 177.706C-14.4542 177.706 -16.5484 175.612 -16.5484 173.029C-16.5484 170.447 -14.4542 168.353 -11.871 168.353C-9.28769 168.353 -7.19356 170.447 -7.19356 173.029Z" fill="#CD892D" fill-opacity="0.5"/>
<path d="M20.871 173.029C20.871 175.612 18.7768 177.706 16.1936 177.706C13.6103 177.706 11.5161 175.612 11.5161 173.029C11.5161 170.447 13.6103 168.353 16.1936 168.353C18.7768 168.353 20.871 170.447 20.871 173.029Z" fill="#CD892D" fill-opacity="0.5"/>
<path d="M48.9355 173.029C48.9355 175.612 46.8413 177.706 44.2581 177.706C41.6748 177.706 39.5807 175.612 39.5807 173.029C39.5807 170.447 41.6748 168.353 44.2581 168.353C46.8413 168.353 48.9355 170.447 48.9355 173.029Z" fill="#CD892D" fill-opacity="0.5"/>
<path d="M77 173.029C77 175.612 74.9059 177.706 72.3226 177.706C69.7393 177.706 67.6452 175.612 67.6452 173.029C67.6452 170.447 69.7393 168.353 72.3226 168.353C74.9059 168.353 77 170.447 77 173.029Z" fill="#CD892D" fill-opacity="0.5"/>
<path d="M-203.645 201.088C-203.645 203.671 -205.739 205.765 -208.323 205.765C-210.906 205.765 -213 203.671 -213 201.088C-213 198.506 -210.906 196.412 -208.323 196.412C-205.739 196.412 -203.645 198.506 -203.645 201.088Z" fill="#CD892D" fill-opacity="0.5"/>
<path d="M-175.581 201.088C-175.581 203.671 -177.675 205.765 -180.258 205.765C-182.841 205.765 -184.935 203.671 -184.935 201.088C-184.935 198.506 -182.841 196.412 -180.258 196.412C-177.675 196.412 -175.581 198.506 -175.581 201.088Z" fill="#CD892D" fill-opacity="0.5"/>
<path d="M-147.516 201.088C-147.516 203.671 -149.61 205.765 -152.194 205.765C-154.777 205.765 -156.871 203.671 -156.871 201.088C-156.871 198.506 -154.777 196.412 -152.194 196.412C-149.61 196.412 -147.516 198.506 -147.516 201.088Z" fill="#CD892D" fill-opacity="0.5"/>
<path d="M-119.452 201.088C-119.452 203.671 -121.546 205.765 -124.129 205.765C-126.712 205.765 -128.806 203.671 -128.806 201.088C-128.806 198.506 -126.712 196.412 -124.129 196.412C-121.546 196.412 -119.452 198.506 -119.452 201.088Z" fill="#CD892D" fill-opacity="0.5"/>
<path d="M-91.3871 201.088C-91.3871 203.671 -93.4813 205.765 -96.0645 205.765C-98.6478 205.765 -100.742 203.671 -100.742 201.088C-100.742 198.506 -98.6478 196.412 -96.0645 196.412C-93.4813 196.412 -91.3871 198.506 -91.3871 201.088Z" fill="#CD892D" fill-opacity="0.5"/>
<path d="M-63.3226 201.088C-63.3226 203.671 -65.4167 205.765 -68 205.765C-70.5833 205.765 -72.6774 203.671 -72.6774 201.088C-72.6774 198.506 -70.5833 196.412 -68 196.412C-65.4167 196.412 -63.3226 198.506 -63.3226 201.088Z" fill="#CD892D" fill-opacity="0.5"/>
<path d="M-35.2581 201.088C-35.2581 203.671 -37.3522 205.765 -39.9355 205.765C-42.5187 205.765 -44.6129 203.671 -44.6129 201.088C-44.6129 198.506 -42.5187 196.412 -39.9355 196.412C-37.3522 196.412 -35.2581 198.506 -35.2581 201.088Z" fill="#CD892D" fill-opacity="0.5"/>
<path d="M-7.19356 201.088C-7.19356 203.671 -9.28769 205.765 -11.871 205.765C-14.4542 205.765 -16.5484 203.671 -16.5484 201.088C-16.5484 198.506 -14.4542 196.412 -11.871 196.412C-9.28769 196.412 -7.19356 198.506 -7.19356 201.088Z" fill="#CD892D" fill-opacity="0.5"/>
<path d="M20.871 201.088C20.871 203.671 18.7768 205.765 16.1936 205.765C13.6103 205.765 11.5161 203.671 11.5161 201.088C11.5161 198.506 13.6103 196.412 16.1936 196.412C18.7768 196.412 20.871 198.506 20.871 201.088Z" fill="#CD892D" fill-opacity="0.5"/>
<path d="M48.9355 201.088C48.9355 203.671 46.8413 205.765 44.2581 205.765C41.6748 205.765 39.5807 203.671 39.5807 201.088C39.5807 198.506 41.6748 196.412 44.2581 196.412C46.8413 196.412 48.9355 198.506 48.9355 201.088Z" fill="#CD892D" fill-opacity="0.5"/>
<path d="M77 201.088C77 203.671 74.9059 205.765 72.3226 205.765C69.7393 205.765 67.6452 203.671 67.6452 201.088C67.6452 198.506 69.7393 196.412 72.3226 196.412C74.9059 196.412 77 198.506 77 201.088Z" fill="#CD892D" fill-opacity="0.5"/>
<path d="M-203.645 229.147C-203.645 231.73 -205.739 233.824 -208.323 233.824C-210.906 233.824 -213 231.73 -213 229.147C-213 226.564 -210.906 224.471 -208.323 224.471C-205.739 224.471 -203.645 226.564 -203.645 229.147Z" fill="#CD892D" fill-opacity="0.5"/>
<path d="M-175.581 229.147C-175.581 231.73 -177.675 233.824 -180.258 233.824C-182.841 233.824 -184.935 231.73 -184.935 229.147C-184.935 226.564 -182.841 224.471 -180.258 224.471C-177.675 224.471 -175.581 226.564 -175.581 229.147Z" fill="#CD892D" fill-opacity="0.5"/>
<path d="M-147.516 229.147C-147.516 231.73 -149.61 233.824 -152.194 233.824C-154.777 233.824 -156.871 231.73 -156.871 229.147C-156.871 226.564 -154.777 224.471 -152.194 224.471C-149.61 224.471 -147.516 226.564 -147.516 229.147Z" fill="#CD892D" fill-opacity="0.5"/>
<path d="M-119.452 229.147C-119.452 231.73 -121.546 233.824 -124.129 233.824C-126.712 233.824 -128.806 231.73 -128.806 229.147C-128.806 226.564 -126.712 224.471 -124.129 224.471C-121.546 224.471 -119.452 226.564 -119.452 229.147Z" fill="#CD892D" fill-opacity="0.5"/>
<path d="M-91.3871 229.147C-91.3871 231.73 -93.4813 233.824 -96.0645 233.824C-98.6478 233.824 -100.742 231.73 -100.742 229.147C-100.742 226.564 -98.6478 224.471 -96.0645 224.471C-93.4813 224.471 -91.3871 226.564 -91.3871 229.147Z" fill="#CD892D" fill-opacity="0.5"/>
<path d="M-63.3226 229.147C-63.3226 231.73 -65.4167 233.824 -68 233.824C-70.5833 233.824 -72.6774 231.73 -72.6774 229.147C-72.6774 226.564 -70.5833 224.471 -68 224.471C-65.4167 224.471 -63.3226 226.564 -63.3226 229.147Z" fill="#CD892D" fill-opacity="0.5"/>
<path d="M-35.2581 229.147C-35.2581 231.73 -37.3522 233.824 -39.9355 233.824C-42.5187 233.824 -44.6129 231.73 -44.6129 229.147C-44.6129 226.564 -42.5187 224.471 -39.9355 224.471C-37.3522 224.471 -35.2581 226.564 -35.2581 229.147Z" fill="#CD892D" fill-opacity="0.5"/>
<path d="M-7.19356 229.147C-7.19356 231.73 -9.28769 233.824 -11.871 233.824C-14.4542 233.824 -16.5484 231.73 -16.5484 229.147C-16.5484 226.564 -14.4542 224.471 -11.871 224.471C-9.28769 224.471 -7.19356 226.564 -7.19356 229.147Z" fill="#CD892D" fill-opacity="0.5"/>
<path d="M20.871 229.147C20.871 231.73 18.7768 233.824 16.1936 233.824C13.6103 233.824 11.5161 231.73 11.5161 229.147C11.5161 226.564 13.6103 224.471 16.1936 224.471C18.7768 224.471 20.871 226.564 20.871 229.147Z" fill="#CD892D" fill-opacity="0.5"/>
<path d="M48.9355 229.147C48.9355 231.73 46.8413 233.824 44.2581 233.824C41.6748 233.824 39.5807 231.73 39.5807 229.147C39.5807 226.564 41.6748 224.471 44.2581 224.471C46.8413 224.471 48.9355 226.564 48.9355 229.147Z" fill="#CD892D" fill-opacity="0.5"/>
<path d="M77 229.147C77 231.73 74.9059 233.824 72.3226 233.824C69.7393 233.824 67.6452 231.73 67.6452 229.147C67.6452 226.564 69.7393 224.471 72.3226 224.471C74.9059 224.471 77 226.564 77 229.147Z" fill="#CD892D" fill-opacity="0.5"/>
<path d="M-203.645 257.206C-203.645 259.789 -205.739 261.882 -208.323 261.882C-210.906 261.882 -213 259.789 -213 257.206C-213 254.623 -210.906 252.529 -208.323 252.529C-205.739 252.529 -203.645 254.623 -203.645 257.206Z" fill="#CD892D" fill-opacity="0.5"/>
<path d="M-175.581 257.206C-175.581 259.789 -177.675 261.882 -180.258 261.882C-182.841 261.882 -184.935 259.789 -184.935 257.206C-184.935 254.623 -182.841 252.529 -180.258 252.529C-177.675 252.529 -175.581 254.623 -175.581 257.206Z" fill="#CD892D" fill-opacity="0.5"/>
<path d="M-147.516 257.206C-147.516 259.789 -149.61 261.882 -152.194 261.882C-154.777 261.882 -156.871 259.789 -156.871 257.206C-156.871 254.623 -154.777 252.529 -152.194 252.529C-149.61 252.529 -147.516 254.623 -147.516 257.206Z" fill="#CD892D" fill-opacity="0.5"/>
<path d="M-119.452 257.206C-119.452 259.789 -121.546 261.882 -124.129 261.882C-126.712 261.882 -128.806 259.789 -128.806 257.206C-128.806 254.623 -126.712 252.529 -124.129 252.529C-121.546 252.529 -119.452 254.623 -119.452 257.206Z" fill="#CD892D" fill-opacity="0.5"/>
<path d="M-91.3871 257.206C-91.3871 259.789 -93.4813 261.882 -96.0645 261.882C-98.6478 261.882 -100.742 259.789 -100.742 257.206C-100.742 254.623 -98.6478 252.529 -96.0645 252.529C-93.4813 252.529 -91.3871 254.623 -91.3871 257.206Z" fill="#CD892D" fill-opacity="0.5"/>
<path d="M-63.3226 257.206C-63.3226 259.789 -65.4167 261.882 -68 261.882C-70.5833 261.882 -72.6774 259.789 -72.6774 257.206C-72.6774 254.623 -70.5833 252.529 -68 252.529C-65.4167 252.529 -63.3226 254.623 -63.3226 257.206Z" fill="#CD892D" fill-opacity="0.5"/>
<path d="M-35.2581 257.206C-35.2581 259.789 -37.3522 261.882 -39.9355 261.882C-42.5187 261.882 -44.6129 259.789 -44.6129 257.206C-44.6129 254.623 -42.5187 252.529 -39.9355 252.529C-37.3522 252.529 -35.2581 254.623 -35.2581 257.206Z" fill="#CD892D" fill-opacity="0.5"/>
<path d="M-7.19356 257.206C-7.19356 259.789 -9.28769 261.882 -11.871 261.882C-14.4542 261.882 -16.5484 259.789 -16.5484 257.206C-16.5484 254.623 -14.4542 252.529 -11.871 252.529C-9.28769 252.529 -7.19356 254.623 -7.19356 257.206Z" fill="#CD892D" fill-opacity="0.5"/>
<path d="M20.871 257.206C20.871 259.789 18.7768 261.882 16.1936 261.882C13.6103 261.882 11.5161 259.789 11.5161 257.206C11.5161 254.623 13.6103 252.529 16.1936 252.529C18.7768 252.529 20.871 254.623 20.871 257.206Z" fill="#CD892D" fill-opacity="0.5"/>
<path d="M48.9355 257.206C48.9355 259.789 46.8413 261.882 44.2581 261.882C41.6748 261.882 39.5807 259.789 39.5807 257.206C39.5807 254.623 41.6748 252.529 44.2581 252.529C46.8413 252.529 48.9355 254.623 48.9355 257.206Z" fill="#CD892D" fill-opacity="0.5"/>
<path d="M77 257.206C77 259.789 74.9059 261.882 72.3226 261.882C69.7393 261.882 67.6452 259.789 67.6452 257.206C67.6452 254.623 69.7393 252.529 72.3226 252.529C74.9059 252.529 77 254.623 77 257.206Z" fill="#CD892D" fill-opacity="0.5"/>
<path d="M-203.645 285.265C-203.645 287.847 -205.739 289.941 -208.323 289.941C-210.906 289.941 -213 287.847 -213 285.265C-213 282.682 -210.906 280.588 -208.323 280.588C-205.739 280.588 -203.645 282.682 -203.645 285.265Z" fill="#CD892D" fill-opacity="0.5"/>
<path d="M-175.581 285.265C-175.581 287.847 -177.675 289.941 -180.258 289.941C-182.841 289.941 -184.935 287.847 -184.935 285.265C-184.935 282.682 -182.841 280.588 -180.258 280.588C-177.675 280.588 -175.581 282.682 -175.581 285.265Z" fill="#CD892D" fill-opacity="0.5"/>
<path d="M-147.516 285.265C-147.516 287.847 -149.61 289.941 -152.194 289.941C-154.777 289.941 -156.871 287.847 -156.871 285.265C-156.871 282.682 -154.777 280.588 -152.194 280.588C-149.61 280.588 -147.516 282.682 -147.516 285.265Z" fill="#CD892D" fill-opacity="0.5"/>
<path d="M-119.452 285.265C-119.452 287.847 -121.546 289.941 -124.129 289.941C-126.712 289.941 -128.806 287.847 -128.806 285.265C-128.806 282.682 -126.712 280.588 -124.129 280.588C-121.546 280.588 -119.452 282.682 -119.452 285.265Z" fill="#CD892D" fill-opacity="0.5"/>
<path d="M-91.3871 285.265C-91.3871 287.847 -93.4813 289.941 -96.0645 289.941C-98.6478 289.941 -100.742 287.847 -100.742 285.265C-100.742 282.682 -98.6478 280.588 -96.0645 280.588C-93.4813 280.588 -91.3871 282.682 -91.3871 285.265Z" fill="#CD892D" fill-opacity="0.5"/>
<path d="M-63.3226 285.265C-63.3226 287.847 -65.4167 289.941 -68 289.941C-70.5833 289.941 -72.6774 287.847 -72.6774 285.265C-72.6774 282.682 -70.5833 280.588 -68 280.588C-65.4167 280.588 -63.3226 282.682 -63.3226 285.265Z" fill="#CD892D" fill-opacity="0.5"/>
<path d="M-35.2581 285.265C-35.2581 287.847 -37.3522 289.941 -39.9355 289.941C-42.5187 289.941 -44.6129 287.847 -44.6129 285.265C-44.6129 282.682 -42.5187 280.588 -39.9355 280.588C-37.3522 280.588 -35.2581 282.682 -35.2581 285.265Z" fill="#CD892D" fill-opacity="0.5"/>
<path d="M-7.19356 285.265C-7.19356 287.847 -9.28769 289.941 -11.871 289.941C-14.4542 289.941 -16.5484 287.847 -16.5484 285.265C-16.5484 282.682 -14.4542 280.588 -11.871 280.588C-9.28769 280.588 -7.19356 282.682 -7.19356 285.265Z" fill="#CD892D" fill-opacity="0.5"/>
<path d="M20.871 285.265C20.871 287.847 18.7768 289.941 16.1936 289.941C13.6103 289.941 11.5161 287.847 11.5161 285.265C11.5161 282.682 13.6103 280.588 16.1936 280.588C18.7768 280.588 20.871 282.682 20.871 285.265Z" fill="#CD892D" fill-opacity="0.5"/>
<path d="M48.9355 285.265C48.9355 287.847 46.8413 289.941 44.2581 289.941C41.6748 289.941 39.5807 287.847 39.5807 285.265C39.5807 282.682 41.6748 280.588 44.2581 280.588C46.8413 280.588 48.9355 282.682 48.9355 285.265Z" fill="#CD892D" fill-opacity="0.5"/>
<path d="M77 285.265C77 287.847 74.9059 289.941 72.3226 289.941C69.7393 289.941 67.6452 287.847 67.6452 285.265C67.6452 282.682 69.7393 280.588 72.3226 280.588C74.9059 280.588 77 282.682 77 285.265Z" fill="#CD892D" fill-opacity="0.5"/>
<path d="M-203.645 313.324C-203.645 315.906 -205.739 318 -208.323 318C-210.906 318 -213 315.906 -213 313.324C-213 310.741 -210.906 308.647 -208.323 308.647C-205.739 308.647 -203.645 310.741 -203.645 313.324Z" fill="#CD892D" fill-opacity="0.5"/>
<path d="M-175.581 313.324C-175.581 315.906 -177.675 318 -180.258 318C-182.841 318 -184.935 315.906 -184.935 313.324C-184.935 310.741 -182.841 308.647 -180.258 308.647C-177.675 308.647 -175.581 310.741 -175.581 313.324Z" fill="#CD892D" fill-opacity="0.5"/>
<path d="M-147.516 313.324C-147.516 315.906 -149.61 318 -152.194 318C-154.777 318 -156.871 315.906 -156.871 313.324C-156.871 310.741 -154.777 308.647 -152.194 308.647C-149.61 308.647 -147.516 310.741 -147.516 313.324Z" fill="#CD892D" fill-opacity="0.5"/>
<path d="M-119.452 313.324C-119.452 315.906 -121.546 318 -124.129 318C-126.712 318 -128.806 315.906 -128.806 313.324C-128.806 310.741 -126.712 308.647 -124.129 308.647C-121.546 308.647 -119.452 310.741 -119.452 313.324Z" fill="#CD892D" fill-opacity="0.5"/>
<path d="M-91.3871 313.324C-91.3871 315.906 -93.4813 318 -96.0645 318C-98.6478 318 -100.742 315.906 -100.742 313.324C-100.742 310.741 -98.6478 308.647 -96.0645 308.647C-93.4813 308.647 -91.3871 310.741 -91.3871 313.324Z" fill="#CD892D" fill-opacity="0.5"/>
<path d="M-63.3226 313.324C-63.3226 315.906 -65.4167 318 -68 318C-70.5833 318 -72.6774 315.906 -72.6774 313.324C-72.6774 310.741 -70.5833 308.647 -68 308.647C-65.4167 308.647 -63.3226 310.741 -63.3226 313.324Z" fill="#CD892D" fill-opacity="0.5"/>
<path d="M-35.2581 313.324C-35.2581 315.906 -37.3522 318 -39.9355 318C-42.5187 318 -44.6129 315.906 -44.6129 313.324C-44.6129 310.741 -42.5187 308.647 -39.9355 308.647C-37.3522 308.647 -35.2581 310.741 -35.2581 313.324Z" fill="#CD892D" fill-opacity="0.5"/>
<path d="M-7.19356 313.324C-7.19356 315.906 -9.28769 318 -11.871 318C-14.4542 318 -16.5484 315.906 -16.5484 313.324C-16.5484 310.741 -14.4542 308.647 -11.871 308.647C-9.28769 308.647 -7.19356 310.741 -7.19356 313.324Z" fill="#CD892D" fill-opacity="0.5"/>
<path d="M20.871 313.324C20.871 315.906 18.7768 318 16.1936 318C13.6103 318 11.5161 315.906 11.5161 313.324C11.5161 310.741 13.6103 308.647 16.1936 308.647C18.7768 308.647 20.871 310.741 20.871 313.324Z" fill="#CD892D" fill-opacity="0.5"/>
<path d="M48.9355 313.324C48.9355 315.906 46.8413 318 44.2581 318C41.6748 318 39.5807 315.906 39.5807 313.324C39.5807 310.741 41.6748 308.647 44.2581 308.647C46.8413 308.647 48.9355 310.741 48.9355 313.324Z" fill="#CD892D" fill-opacity="0.5"/>
<path d="M77 313.324C77 315.906 74.9059 318 72.3226 318C69.7393 318 67.6452 315.906 67.6452 313.324C67.6452 310.741 69.7393 308.647 72.3226 308.647C74.9059 308.647 77 310.741 77 313.324Z" fill="#CD892D" fill-opacity="0.5"/>
</svg>
