<svg width="194" height="208" viewBox="0 0 194 208" fill="none" xmlns="http://www.w3.org/2000/svg">
<ellipse cx="6.22936" cy="6.22222" rx="6.22936" ry="6.22222" fill="#E6BF8A"/>
<ellipse cx="6.22936" cy="84.4449" rx="6.22936" ry="6.22222" fill="#E6BF8A"/>
<ellipse cx="6.22936" cy="162.668" rx="6.22936" ry="6.22222" fill="#E6BF8A"/>
<ellipse cx="6.22936" cy="45.3335" rx="6.22936" ry="6.22222" fill="#E6BF8A"/>
<ellipse cx="6.22936" cy="123.556" rx="6.22936" ry="6.22222" fill="#E6BF8A"/>
<ellipse cx="6.22936" cy="201.779" rx="6.22936" ry="6.22222" fill="#E6BF8A"/>
<ellipse cx="36.4872" cy="6.22222" rx="6.22936" ry="6.22222" fill="#E6BF8A"/>
<ellipse cx="36.4872" cy="84.4449" rx="6.22936" ry="6.22222" fill="#E6BF8A"/>
<ellipse cx="36.4872" cy="162.668" rx="6.22936" ry="6.22222" fill="#E6BF8A"/>
<ellipse cx="36.4872" cy="45.3335" rx="6.22936" ry="6.22222" fill="#E6BF8A"/>
<ellipse cx="36.4872" cy="123.556" rx="6.22936" ry="6.22222" fill="#E6BF8A"/>
<ellipse cx="36.4872" cy="201.779" rx="6.22936" ry="6.22222" fill="#E6BF8A"/>
<ellipse cx="66.745" cy="6.22222" rx="6.22936" ry="6.22222" fill="#E6BF8A"/>
<ellipse cx="66.745" cy="84.4449" rx="6.22936" ry="6.22222" fill="#E6BF8A"/>
<ellipse cx="66.745" cy="162.668" rx="6.22936" ry="6.22222" fill="#E6BF8A"/>
<ellipse cx="66.745" cy="45.3335" rx="6.22936" ry="6.22222" fill="#E6BF8A"/>
<ellipse cx="66.745" cy="123.556" rx="6.22936" ry="6.22222" fill="#E6BF8A"/>
<ellipse cx="66.745" cy="201.779" rx="6.22936" ry="6.22222" fill="#E6BF8A"/>
<ellipse cx="97.0028" cy="6.22222" rx="6.22936" ry="6.22222" fill="#E6BF8A"/>
<ellipse cx="97.0028" cy="84.4449" rx="6.22936" ry="6.22222" fill="#E6BF8A"/>
<ellipse cx="97.0028" cy="162.668" rx="6.22936" ry="6.22222" fill="#E6BF8A"/>
<ellipse cx="97.0028" cy="45.3335" rx="6.22936" ry="6.22222" fill="#E6BF8A"/>
<ellipse cx="97.0028" cy="123.556" rx="6.22936" ry="6.22222" fill="#E6BF8A"/>
<ellipse cx="97.0028" cy="201.779" rx="6.22936" ry="6.22222" fill="#E6BF8A"/>
<ellipse cx="127.261" cy="6.22222" rx="6.22936" ry="6.22222" fill="#E6BF8A"/>
<ellipse cx="127.261" cy="84.4449" rx="6.22936" ry="6.22222" fill="#E6BF8A"/>
<ellipse cx="127.261" cy="162.668" rx="6.22936" ry="6.22222" fill="#E6BF8A"/>
<ellipse cx="127.261" cy="45.3335" rx="6.22936" ry="6.22222" fill="#E6BF8A"/>
<ellipse cx="127.261" cy="123.556" rx="6.22936" ry="6.22222" fill="#E6BF8A"/>
<ellipse cx="127.261" cy="201.779" rx="6.22936" ry="6.22222" fill="#E6BF8A"/>
<ellipse cx="157.511" cy="6.22222" rx="6.22936" ry="6.22222" fill="#E6BF8A"/>
<ellipse cx="157.511" cy="84.4449" rx="6.22936" ry="6.22222" fill="#E6BF8A"/>
<ellipse cx="157.511" cy="162.668" rx="6.22936" ry="6.22222" fill="#E6BF8A"/>
<ellipse cx="157.511" cy="45.3335" rx="6.22936" ry="6.22222" fill="#E6BF8A"/>
<ellipse cx="157.511" cy="123.556" rx="6.22936" ry="6.22222" fill="#E6BF8A"/>
<ellipse cx="157.511" cy="201.779" rx="6.22936" ry="6.22222" fill="#E6BF8A"/>
<ellipse cx="187.768" cy="6.22222" rx="6.22936" ry="6.22222" fill="#E6BF8A"/>
<ellipse cx="187.768" cy="84.4449" rx="6.22936" ry="6.22222" fill="#E6BF8A"/>
<ellipse cx="187.768" cy="162.668" rx="6.22936" ry="6.22222" fill="#E6BF8A"/>
<ellipse cx="187.768" cy="45.3335" rx="6.22936" ry="6.22222" fill="#E6BF8A"/>
<ellipse cx="187.768" cy="123.556" rx="6.22936" ry="6.22222" fill="#E6BF8A"/>
<ellipse cx="187.768" cy="201.779" rx="6.22936" ry="6.22222" fill="#E6BF8A"/>
</svg>
