<svg width="24" height="24" viewBox="0 0 24 24" fill="none" xmlns="http://www.w3.org/2000/svg">
<path fill-rule="evenodd" clip-rule="evenodd" d="M21.8182 6.1461C21.1356 6.44856 20.4032 6.65368 19.6337 6.74525C20.4194 6.27474 21.0209 5.52844 21.3059 4.64189C20.5689 5.07762 19.7553 5.39401 18.8885 5.56553C18.1943 4.82501 17.207 4.36377 16.1118 4.36377C14.0108 4.36377 12.3073 6.06731 12.3073 8.16719C12.3073 8.46501 12.3409 8.75589 12.4058 9.03404C9.24437 8.87525 6.44107 7.36062 4.56486 5.05907C4.23689 5.61998 4.05031 6.27356 4.05031 6.97122C4.05031 8.29119 4.72246 9.45586 5.74228 10.1373C5.1188 10.1164 4.5324 9.94489 4.01904 9.6598V9.70732C4.01904 11.5499 5.33089 13.0877 7.07034 13.4377C6.75164 13.5235 6.41558 13.571 6.06792 13.571C5.82225 13.571 5.58468 13.5467 5.35174 13.5003C5.83613 15.0126 7.24071 16.1124 8.90486 16.1426C7.60343 17.1624 5.96246 17.7685 4.18013 17.7685C3.87304 17.7685 3.57055 17.7499 3.27274 17.7163C4.95658 18.7976 6.95564 19.428 9.10419 19.428C16.1026 19.428 19.9281 13.6313 19.9281 8.6041L19.9153 8.11159C20.6628 7.57847 21.3094 6.90865 21.8182 6.1461Z" fill="#CD892D"/>
</svg>
