<svg width="65" height="45" viewBox="0 0 65 45" fill="none" xmlns="http://www.w3.org/2000/svg">
<path d="M32.5 0C52.8125 0 65 22.3438 65 22.3438C65 22.3438 52.8125 44.6875 32.5 44.6875C12.1875 44.6875 0 22.3438 0 22.3438C0 22.3438 12.1875 0 32.5 0ZM32.5 4.0625C18.2 4.0625 8.11687 17.2697 4.77344 22.3438C8.11281 27.4137 18.1959 40.625 32.5 40.625C46.8 40.625 56.8831 27.4178 60.2266 22.3438C56.8872 17.2738 46.8041 4.0625 32.5 4.0625ZM32.5 8.125C36.271 8.125 39.8876 9.62304 42.5542 12.2896C45.2207 14.9561 46.7188 18.5727 46.7188 22.3438C46.7188 26.1148 45.2207 29.7314 42.5542 32.3979C39.8876 35.0645 36.271 36.5625 32.5 36.5625C28.729 36.5625 25.1124 35.0645 22.4458 32.3979C19.7793 29.7314 18.2812 26.1148 18.2812 22.3438C18.2812 18.5727 19.7793 14.9561 22.4458 12.2896C25.1124 9.62304 28.729 8.125 32.5 8.125ZM32.5 12.1875C29.8074 12.1907 27.2259 13.2617 25.322 15.1657C23.418 17.0697 22.3469 19.6511 22.3438 22.3438C22.3438 27.9419 26.8978 32.5 32.5 32.5C38.1022 32.5 42.6562 27.9419 42.6562 22.3438C42.6562 16.7456 38.1022 12.1875 32.5 12.1875Z" fill="#CD892D"/>
</svg>
